<?xml version="1.0" encoding="utf-8"?>
<svg viewBox="0 0 187 270" style="shape-rendering:geometricPrecision; text-rendering:geometricPrecision; image-rendering:optimizeQuality; fill-rule:evenodd; clip-rule:evenodd" xmlns="http://www.w3.org/2000/svg">
  <g>
    <path style="opacity:1" fill="#474747" d="M 20.5,7.5 C 28.8333,7.5 37.1667,7.5 45.5,7.5C 46.684,24.8276 47.8506,42.1609 49,59.5C 51.8078,63.7777 53.4745,68.4444 54,73.5C 60.468,78.8997 65.1347,85.5664 68,93.5C 71.8594,96.755 75.8594,99.755 80,102.5C 80.6667,105.167 80.6667,107.833 80,110.5C 74.9433,117.848 75.4433,124.681 81.5,131C 84.1667,131.333 86.8333,131.667 89.5,132C 94.3004,137.802 99.467,143.302 105,148.5C 106.767,153.173 109.267,157.34 112.5,161C 116.817,162.329 121.15,163.495 125.5,164.5C 134.968,161.806 144.635,160.639 154.5,161C 159.081,162.871 163.248,165.371 167,168.5C 168.045,194.027 169.545,219.527 171.5,245C 171.368,247.799 170.035,249.799 167.5,251C 117.176,252.525 66.843,253.192 16.5,253C 14.5572,251.061 13.5572,248.728 13.5,246C 14.8807,228.839 16.2141,211.673 17.5,194.5C 17.0563,189.666 15.8896,184.999 14,180.5C 13.226,173.776 13.5594,167.11 15,160.5C 18.6667,154.167 22.3333,147.833 26,141.5C 27.9487,135.807 27.9487,130.14 26,124.5C 22.6381,122.65 19.6381,120.317 17,117.5C 16.6667,114.833 16.3333,112.167 16,109.5C 16.5001,76.1626 17.5001,42.8293 19,9.5C 19.7172,8.9558 20.2172,8.28913 20.5,7.5 Z"/>
  </g>
</svg>