<svg xmlns="http://www.w3.org/2000/svg" viewBox="0 0 1000 100">
  <defs>
    <linearGradient id="grad1" x1="0%" y1="0%" x2="100%" y2="0%">
      <stop offset="0%" style="stop-color:#ff9e29;stop-opacity:1" />
      <stop offset="100%" style="stop-color:#ff6200;stop-opacity:1" />
    </linearGradient>
  </defs>
  <path d="M0 1v99c134.3 0 153.7-99 296-99H0Z" opacity=".5" fill="url(#grad1)"></path>
  <path d="M1000 4v86C833.3 90 833.3 3.6 666.7 3.6S500 90 333.3 90 166.7 4 0 4h1000Z" opacity=".5" fill="url(#grad1)"></path>
  <path d="M617 1v86C372 119 384 1 196 1h421Z" opacity=".5" fill="url(#grad1)"></path>
  <path d="M1000 0H0v52C62.5 28 125 4 250 4c250 0 250 96 500 96 125 0 187.5-24 250-48V0Z" fill="url(#grad1)"></path>
</svg>
