<?xml version="1.0" encoding="UTF-8"?>
<svg xmlns="http://www.w3.org/2000/svg" xmlns:xlink="http://www.w3.org/1999/xlink" width="32px" height="32px" viewBox="0 0 32 31" version="1.1">
<defs>
<filter id="alpha" filterUnits="objectBoundingBox" x="0%" y="0%" width="100%" height="100%">
  <feColorMatrix type="matrix" in="SourceGraphic" values="0 0 0 0 1 0 0 0 0 1 0 0 0 0 1 0 0 0 1 0"/>
</filter>
<mask id="mask0">
  <g filter="url(#alpha)">
<rect x="0" y="0" width="32" height="31" style="fill:rgb(0%,0%,0%);fill-opacity:0.988235;stroke:none;"/>
  </g>
</mask>
<clipPath id="clip1">
  <rect x="0" y="0" width="32" height="31"/>
</clipPath>
<g id="surface5" clip-path="url(#clip1)">
<path style=" stroke:none;fill-rule:evenodd;fill:rgb(85.098039%,9.411765%,40.392157%);fill-opacity:1;" d="M 24.929688 1.757812 C 24.644531 1.757812 24.363281 1.757812 24.082031 1.757812 C 24.039062 1.332031 23.804688 1.054688 23.382812 0.929688 C 22.96875 0.835938 22.613281 0.9375 22.316406 1.230469 C 22.191406 1.386719 22.128906 1.5625 22.125 1.757812 C 17.605469 1.757812 13.085938 1.757812 8.566406 1.757812 C 8.511719 1.269531 8.238281 0.988281 7.746094 0.90625 C 7.355469 0.859375 7.03125 0.980469 6.777344 1.269531 C 6.675781 1.414062 6.617188 1.578125 6.609375 1.757812 C 6.328125 1.757812 6.046875 1.757812 5.761719 1.757812 C 5.785156 1.023438 6.140625 0.511719 6.824219 0.21875 C 7.445312 0 8.046875 0.046875 8.628906 0.355469 C 8.910156 0.527344 9.125 0.761719 9.265625 1.054688 C 13.320312 1.0625 17.371094 1.0625 21.425781 1.046875 C 21.617188 0.65625 21.921875 0.378906 22.335938 0.21875 C 22.910156 0.015625 23.476562 0.0390625 24.03125 0.292969 C 24.613281 0.609375 24.914062 1.097656 24.929688 1.757812 Z M 24.929688 1.757812 "/>
</g>
<mask id="mask1">
  <g filter="url(#alpha)">
<rect x="0" y="0" width="32" height="31" style="fill:rgb(0%,0%,0%);fill-opacity:0.988235;stroke:none;"/>
  </g>
</mask>
<clipPath id="clip2">
  <rect x="0" y="0" width="32" height="31"/>
</clipPath>
<g id="surface8" clip-path="url(#clip2)">
<path style=" stroke:none;fill-rule:evenodd;fill:rgb(85.490196%,9.803922%,40.392157%);fill-opacity:1;" d="M 5.761719 1.757812 C 6.046875 1.757812 6.328125 1.757812 6.609375 1.757812 C 6.605469 1.875 6.613281 1.988281 6.636719 2.101562 C 6.347656 2.101562 6.0625 2.101562 5.777344 2.101562 C 5.761719 1.988281 5.757812 1.875 5.761719 1.757812 Z M 5.761719 1.757812 "/>
</g>
<mask id="mask2">
  <g filter="url(#alpha)">
<rect x="0" y="0" width="32" height="31" style="fill:rgb(0%,0%,0%);fill-opacity:0.988235;stroke:none;"/>
  </g>
</mask>
<clipPath id="clip3">
  <rect x="0" y="0" width="32" height="31"/>
</clipPath>
<g id="surface11" clip-path="url(#clip3)">
<path style=" stroke:none;fill-rule:evenodd;fill:rgb(85.490196%,9.803922%,40.392157%);fill-opacity:1;" d="M 24.082031 1.757812 C 24.363281 1.757812 24.644531 1.757812 24.929688 1.757812 C 24.929688 1.875 24.925781 1.988281 24.914062 2.101562 C 24.625 2.101562 24.335938 2.101562 24.042969 2.101562 C 24.074219 1.988281 24.085938 1.875 24.082031 1.757812 Z M 24.082031 1.757812 "/>
</g>
<mask id="mask3">
  <g filter="url(#alpha)">
<rect x="0" y="0" width="32" height="31" style="fill:rgb(0%,0%,0%);fill-opacity:0.996078;stroke:none;"/>
  </g>
</mask>
<clipPath id="clip4">
  <rect x="0" y="0" width="32" height="31"/>
</clipPath>
<g id="surface14" clip-path="url(#clip4)">
<path style=" stroke:none;fill-rule:evenodd;fill:rgb(85.882353%,10.980392%,40%);fill-opacity:1;" d="M 5.777344 2.101562 C 6.0625 2.101562 6.347656 2.101562 6.636719 2.101562 C 6.726562 2.402344 6.925781 2.609375 7.226562 2.714844 C 7.605469 2.832031 7.953125 2.773438 8.269531 2.539062 C 8.398438 2.414062 8.492188 2.269531 8.542969 2.101562 C 13.078125 2.101562 17.613281 2.101562 22.148438 2.101562 C 22.25 2.425781 22.46875 2.636719 22.796875 2.734375 C 23.199219 2.832031 23.550781 2.746094 23.851562 2.46875 C 23.945312 2.363281 24.007812 2.238281 24.042969 2.101562 C 24.335938 2.101562 24.625 2.101562 24.914062 2.101562 C 24.894531 2.289062 24.84375 2.464844 24.765625 2.636719 C 24.925781 2.84375 25.089844 3.050781 25.253906 3.253906 C 24.160156 3.253906 23.066406 3.253906 21.976562 3.253906 C 21.714844 3.082031 21.523438 2.851562 21.402344 2.566406 C 17.363281 2.554688 13.328125 2.550781 9.289062 2.5625 C 9.164062 2.851562 8.972656 3.082031 8.703125 3.253906 C 7.960938 3.253906 7.21875 3.253906 6.472656 3.253906 C 6.167969 3.058594 5.960938 2.789062 5.84375 2.445312 C 5.808594 2.332031 5.785156 2.21875 5.777344 2.101562 Z M 5.777344 2.101562 "/>
</g>
<mask id="mask4">
  <g filter="url(#alpha)">
<rect x="0" y="0" width="32" height="31" style="fill:rgb(0%,0%,0%);fill-opacity:0.972549;stroke:none;"/>
  </g>
</mask>
<clipPath id="clip5">
  <rect x="0" y="0" width="32" height="31"/>
</clipPath>
<g id="surface17" clip-path="url(#clip5)">
<path style=" stroke:none;fill-rule:evenodd;fill:rgb(86.27451%,12.54902%,39.215686%);fill-opacity:1;" d="M 6.472656 3.253906 C 7.21875 3.253906 7.960938 3.253906 8.703125 3.253906 C 8.453125 3.425781 8.175781 3.527344 7.871094 3.566406 C 7.40625 3.625 6.96875 3.542969 6.5625 3.320312 C 6.53125 3.300781 6.5 3.277344 6.472656 3.253906 Z M 6.472656 3.253906 "/>
</g>
<mask id="mask5">
  <g filter="url(#alpha)">
<rect x="0" y="0" width="32" height="31" style="fill:rgb(0%,0%,0%);fill-opacity:0.988235;stroke:none;"/>
  </g>
</mask>
<clipPath id="clip6">
  <rect x="0" y="0" width="32" height="31"/>
</clipPath>
<g id="surface20" clip-path="url(#clip6)">
<path style=" stroke:none;fill-rule:evenodd;fill:rgb(86.27451%,12.941176%,39.215686%);fill-opacity:1;" d="M 21.976562 3.253906 C 23.066406 3.253906 24.160156 3.253906 25.253906 3.253906 C 25.429688 3.484375 25.609375 3.710938 25.789062 3.941406 C 25.171875 3.941406 24.558594 3.941406 23.945312 3.941406 C 23.835938 3.804688 23.730469 3.667969 23.621094 3.53125 C 23.105469 3.640625 22.613281 3.585938 22.136719 3.359375 C 22.078125 3.328125 22.023438 3.296875 21.976562 3.253906 Z M 21.976562 3.253906 "/>
</g>
<mask id="mask6">
  <g filter="url(#alpha)">
<rect x="0" y="0" width="32" height="31" style="fill:rgb(0%,0%,0%);fill-opacity:0.992157;stroke:none;"/>
  </g>
</mask>
<clipPath id="clip7">
  <rect x="0" y="0" width="32" height="31"/>
</clipPath>
<g id="surface23" clip-path="url(#clip7)">
<path style=" stroke:none;fill-rule:evenodd;fill:rgb(86.666667%,14.117647%,38.431373%);fill-opacity:1;" d="M 23.945312 3.941406 C 24.558594 3.941406 25.171875 3.941406 25.789062 3.941406 C 25.945312 4.128906 26.101562 4.320312 26.25 4.515625 C 25.628906 4.515625 25.011719 4.515625 24.390625 4.515625 C 24.242188 4.324219 24.09375 4.132812 23.945312 3.941406 Z M 23.945312 3.941406 "/>
</g>
<mask id="mask7">
  <g filter="url(#alpha)">
<rect x="0" y="0" width="32" height="31" style="fill:rgb(0%,0%,0%);fill-opacity:0.992157;stroke:none;"/>
  </g>
</mask>
<clipPath id="clip8">
  <rect x="0" y="0" width="32" height="31"/>
</clipPath>
<g id="surface26" clip-path="url(#clip8)">
<path style=" stroke:none;fill-rule:evenodd;fill:rgb(86.666667%,15.686275%,37.647059%);fill-opacity:1;" d="M 24.390625 4.515625 C 25.011719 4.515625 25.628906 4.515625 26.25 4.515625 C 26.558594 4.898438 26.863281 5.28125 27.160156 5.667969 C 26.539062 5.667969 25.921875 5.667969 25.300781 5.667969 C 25 5.285156 24.695312 4.902344 24.390625 4.515625 Z M 24.390625 4.515625 "/>
</g>
<mask id="mask8">
  <g filter="url(#alpha)">
<rect x="0" y="0" width="32" height="31" style="fill:rgb(0%,0%,0%);fill-opacity:0.992157;stroke:none;"/>
  </g>
</mask>
<clipPath id="clip9">
  <rect x="0" y="0" width="32" height="31"/>
</clipPath>
<g id="surface29" clip-path="url(#clip9)">
<path style=" stroke:none;fill-rule:evenodd;fill:rgb(87.45098%,18.039216%,36.862745%);fill-opacity:1;" d="M 25.300781 5.667969 C 25.921875 5.667969 26.539062 5.667969 27.160156 5.667969 C 27.464844 6.046875 27.769531 6.425781 28.070312 6.808594 C 27.441406 6.808594 26.8125 6.808594 26.1875 6.808594 C 25.886719 6.433594 25.59375 6.054688 25.300781 5.667969 Z M 25.300781 5.667969 "/>
</g>
<mask id="mask9">
  <g filter="url(#alpha)">
<rect x="0" y="0" width="32" height="31" style="fill:rgb(0%,0%,0%);fill-opacity:0.992157;stroke:none;"/>
  </g>
</mask>
<clipPath id="clip10">
  <rect x="0" y="0" width="32" height="31"/>
</clipPath>
<g id="surface32" clip-path="url(#clip10)">
<path style=" stroke:none;fill-rule:evenodd;fill:rgb(87.45098%,19.215686%,36.078431%);fill-opacity:1;" d="M 26.1875 6.808594 C 26.8125 6.808594 27.441406 6.808594 28.070312 6.808594 C 28.105469 6.847656 28.140625 6.886719 28.167969 6.933594 C 27.542969 6.933594 26.914062 6.933594 26.285156 6.933594 C 26.25 6.894531 26.214844 6.855469 26.1875 6.808594 Z M 26.1875 6.808594 "/>
</g>
<mask id="mask10">
  <g filter="url(#alpha)">
<rect x="0" y="0" width="32" height="31" style="fill:rgb(0%,0%,0%);fill-opacity:0.992157;stroke:none;"/>
  </g>
</mask>
<clipPath id="clip11">
  <rect x="0" y="0" width="32" height="31"/>
</clipPath>
<g id="surface35" clip-path="url(#clip11)">
<path style=" stroke:none;fill-rule:evenodd;fill:rgb(87.843137%,19.607843%,36.078431%);fill-opacity:1;" d="M 3.570312 6.933594 C 9.953125 6.933594 16.339844 6.933594 22.722656 6.933594 C 22.902344 7.15625 23.074219 7.386719 23.246094 7.617188 C 22.015625 7.617188 20.789062 7.617188 19.558594 7.617188 C 19.375 7.214844 19.054688 7.003906 18.605469 6.980469 C 18.152344 7.003906 17.832031 7.21875 17.636719 7.617188 C 17.144531 7.617188 16.648438 7.617188 16.15625 7.617188 C 16.003906 7.601562 15.847656 7.601562 15.695312 7.617188 C 15.246094 7.617188 14.796875 7.617188 14.347656 7.617188 C 14.085938 7.105469 13.667969 6.90625 13.089844 7.023438 C 12.777344 7.121094 12.558594 7.320312 12.429688 7.617188 C 11.144531 7.617188 9.863281 7.617188 8.578125 7.617188 C 8.738281 7.402344 8.898438 7.1875 9.066406 6.976562 C 7.910156 6.964844 6.757812 6.964844 5.601562 6.976562 C 5.425781 7.191406 5.246094 7.40625 5.066406 7.617188 C 4.382812 7.617188 3.703125 7.617188 3.023438 7.617188 C 3.199219 7.386719 3.382812 7.15625 3.570312 6.933594 Z M 3.570312 6.933594 "/>
</g>
<mask id="mask11">
  <g filter="url(#alpha)">
<rect x="0" y="0" width="32" height="31" style="fill:rgb(0%,0%,0%);fill-opacity:0.992157;stroke:none;"/>
  </g>
</mask>
<clipPath id="clip12">
  <rect x="0" y="0" width="32" height="31"/>
</clipPath>
<g id="surface38" clip-path="url(#clip12)">
<path style=" stroke:none;fill-rule:evenodd;fill:rgb(87.843137%,20%,36.078431%);fill-opacity:1;" d="M 26.285156 6.933594 C 26.914062 6.933594 27.542969 6.933594 28.167969 6.933594 C 28.351562 7.15625 28.53125 7.386719 28.703125 7.617188 C 28.078125 7.617188 27.449219 7.617188 26.824219 7.617188 C 26.632812 7.394531 26.457031 7.167969 26.285156 6.933594 Z M 26.285156 6.933594 "/>
</g>
<mask id="mask12">
  <g filter="url(#alpha)">
<rect x="0" y="0" width="32" height="31" style="fill:rgb(0%,0%,0%);fill-opacity:0.992157;stroke:none;"/>
  </g>
</mask>
<clipPath id="clip13">
  <rect x="0" y="0" width="32" height="31"/>
</clipPath>
<g id="surface41" clip-path="url(#clip13)">
<path style=" stroke:none;fill-rule:evenodd;fill:rgb(88.235294%,21.176471%,35.686275%);fill-opacity:1;" d="M 3.023438 7.617188 C 3.703125 7.617188 4.382812 7.617188 5.066406 7.617188 C 4.84375 7.890625 4.621094 8.160156 4.390625 8.425781 C 3.722656 8.425781 3.054688 8.425781 2.386719 8.425781 C 2.597656 8.15625 2.808594 7.886719 3.023438 7.617188 Z M 3.023438 7.617188 "/>
</g>
<mask id="mask13">
  <g filter="url(#alpha)">
<rect x="0" y="0" width="32" height="31" style="fill:rgb(0%,0%,0%);fill-opacity:0.996078;stroke:none;"/>
  </g>
</mask>
<clipPath id="clip14">
  <rect x="0" y="0" width="32" height="31"/>
</clipPath>
<g id="surface44" clip-path="url(#clip14)">
<path style=" stroke:none;fill-rule:evenodd;fill:rgb(88.235294%,21.176471%,35.686275%);fill-opacity:1;" d="M 8.578125 7.617188 C 9.863281 7.617188 11.144531 7.617188 12.429688 7.617188 C 12.390625 7.714844 12.367188 7.816406 12.363281 7.925781 C 12.359375 8.09375 12.351562 8.261719 12.332031 8.425781 C 10.867188 8.425781 9.40625 8.425781 7.945312 8.425781 C 8.148438 8.152344 8.363281 7.882812 8.578125 7.617188 Z M 8.578125 7.617188 "/>
</g>
<mask id="mask14">
  <g filter="url(#alpha)">
<rect x="0" y="0" width="32" height="31" style="fill:rgb(0%,0%,0%);fill-opacity:0.976471;stroke:none;"/>
  </g>
</mask>
<clipPath id="clip15">
  <rect x="0" y="0" width="32" height="31"/>
</clipPath>
<g id="surface47" clip-path="url(#clip15)">
<path style=" stroke:none;fill-rule:evenodd;fill:rgb(88.235294%,21.176471%,35.686275%);fill-opacity:1;" d="M 14.347656 7.617188 C 14.796875 7.617188 15.246094 7.617188 15.695312 7.617188 C 15.25 7.730469 14.949219 8 14.796875 8.425781 C 14.640625 8.425781 14.480469 8.425781 14.324219 8.425781 C 14.445312 8.160156 14.453125 7.890625 14.347656 7.617188 Z M 14.347656 7.617188 "/>
</g>
<mask id="mask15">
  <g filter="url(#alpha)">
<rect x="0" y="0" width="32" height="31" style="fill:rgb(0%,0%,0%);fill-opacity:0.980392;stroke:none;"/>
  </g>
</mask>
<clipPath id="clip16">
  <rect x="0" y="0" width="32" height="31"/>
</clipPath>
<g id="surface50" clip-path="url(#clip16)">
<path style=" stroke:none;fill-rule:evenodd;fill:rgb(88.235294%,21.176471%,35.686275%);fill-opacity:1;" d="M 16.15625 7.617188 C 16.648438 7.617188 17.144531 7.617188 17.636719 7.617188 C 17.539062 7.890625 17.550781 8.160156 17.664062 8.425781 C 17.460938 8.425781 17.257812 8.425781 17.054688 8.425781 C 16.902344 8 16.601562 7.730469 16.15625 7.617188 Z M 16.15625 7.617188 "/>
</g>
<mask id="mask16">
  <g filter="url(#alpha)">
<rect x="0" y="0" width="32" height="31" style="fill:rgb(0%,0%,0%);fill-opacity:0.996078;stroke:none;"/>
  </g>
</mask>
<clipPath id="clip17">
  <rect x="0" y="0" width="32" height="31"/>
</clipPath>
<g id="surface53" clip-path="url(#clip17)">
<path style=" stroke:none;fill-rule:evenodd;fill:rgb(88.235294%,21.176471%,35.686275%);fill-opacity:1;" d="M 19.558594 7.617188 C 20.789062 7.617188 22.015625 7.617188 23.246094 7.617188 C 23.457031 7.882812 23.660156 8.152344 23.855469 8.425781 C 22.457031 8.425781 21.058594 8.425781 19.65625 8.425781 C 19.636719 8.253906 19.625 8.078125 19.625 7.898438 C 19.621094 7.800781 19.597656 7.707031 19.558594 7.617188 Z M 19.558594 7.617188 "/>
</g>
<mask id="mask17">
  <g filter="url(#alpha)">
<rect x="0" y="0" width="32" height="31" style="fill:rgb(0%,0%,0%);fill-opacity:0.992157;stroke:none;"/>
  </g>
</mask>
<clipPath id="clip18">
  <rect x="0" y="0" width="32" height="31"/>
</clipPath>
<g id="surface56" clip-path="url(#clip18)">
<path style=" stroke:none;fill-rule:evenodd;fill:rgb(88.235294%,21.176471%,35.686275%);fill-opacity:1;" d="M 26.824219 7.617188 C 27.449219 7.617188 28.078125 7.617188 28.703125 7.617188 C 28.925781 7.882812 29.140625 8.152344 29.351562 8.425781 C 28.714844 8.425781 28.082031 8.425781 27.445312 8.425781 C 27.234375 8.160156 27.027344 7.890625 26.824219 7.617188 Z M 26.824219 7.617188 "/>
</g>
<mask id="mask18">
  <g filter="url(#alpha)">
<rect x="0" y="0" width="32" height="31" style="fill:rgb(0%,0%,0%);fill-opacity:0.992157;stroke:none;"/>
  </g>
</mask>
<clipPath id="clip19">
  <rect x="0" y="0" width="32" height="31"/>
</clipPath>
<g id="surface59" clip-path="url(#clip19)">
<path style=" stroke:none;fill-rule:evenodd;fill:rgb(88.627451%,23.137255%,34.509804%);fill-opacity:1;" d="M 2.386719 8.425781 C 3.054688 8.425781 3.722656 8.425781 4.390625 8.425781 C 4.09375 8.792969 3.792969 9.15625 3.488281 9.519531 C 3.511719 9.574219 3.539062 9.632812 3.570312 9.691406 C 3.191406 9.691406 2.8125 9.691406 2.4375 9.691406 C 2.09375 9.527344 1.753906 9.527344 1.414062 9.691406 C 1.03125 9.691406 0.648438 9.691406 0.269531 9.691406 C 0.472656 9.296875 0.789062 9.023438 1.214844 8.875 C 1.503906 8.777344 1.796875 8.742188 2.101562 8.769531 C 2.203125 8.660156 2.296875 8.546875 2.386719 8.425781 Z M 2.386719 8.425781 "/>
</g>
<mask id="mask19">
  <g filter="url(#alpha)">
<rect x="0" y="0" width="32" height="31" style="fill:rgb(0%,0%,0%);fill-opacity:0.996078;stroke:none;"/>
  </g>
</mask>
<clipPath id="clip20">
  <rect x="0" y="0" width="32" height="31"/>
</clipPath>
<g id="surface62" clip-path="url(#clip20)">
<path style=" stroke:none;fill-rule:evenodd;fill:rgb(88.627451%,23.137255%,34.901961%);fill-opacity:1;" d="M 7.945312 8.425781 C 9.40625 8.425781 10.867188 8.425781 12.332031 8.425781 C 12.152344 9.054688 11.742188 9.441406 11.097656 9.585938 C 11.015625 9.597656 10.929688 9.605469 10.847656 9.605469 C 10.660156 9.585938 10.472656 9.578125 10.285156 9.585938 C 10.171875 9.605469 10.066406 9.640625 9.960938 9.691406 C 8.960938 9.691406 7.960938 9.691406 6.960938 9.691406 C 7.285156 9.265625 7.613281 8.84375 7.945312 8.425781 Z M 7.945312 8.425781 "/>
</g>
<mask id="mask20">
  <g filter="url(#alpha)">
<rect x="0" y="0" width="32" height="31" style="fill:rgb(0%,0%,0%);fill-opacity:0.988235;stroke:none;"/>
  </g>
</mask>
<clipPath id="clip21">
  <rect x="0" y="0" width="32" height="31"/>
</clipPath>
<g id="surface65" clip-path="url(#clip21)">
<path style=" stroke:none;fill-rule:evenodd;fill:rgb(88.627451%,23.529412%,34.509804%);fill-opacity:1;" d="M 14.324219 8.425781 C 14.480469 8.425781 14.640625 8.425781 14.796875 8.425781 C 14.664062 8.929688 14.796875 9.351562 15.195312 9.691406 C 14.035156 9.691406 12.871094 9.691406 11.707031 9.691406 C 11.972656 9.285156 12.351562 9.050781 12.839844 8.984375 C 13.078125 8.992188 13.3125 8.996094 13.550781 8.996094 C 13.902344 8.929688 14.160156 8.738281 14.324219 8.425781 Z M 14.324219 8.425781 "/>
</g>
<mask id="mask21">
  <g filter="url(#alpha)">
<rect x="0" y="0" width="32" height="31" style="fill:rgb(0%,0%,0%);fill-opacity:0.988235;stroke:none;"/>
  </g>
</mask>
<clipPath id="clip22">
  <rect x="0" y="0" width="32" height="31"/>
</clipPath>
<g id="surface68" clip-path="url(#clip22)">
<path style=" stroke:none;fill-rule:evenodd;fill:rgb(88.627451%,23.529412%,34.509804%);fill-opacity:1;" d="M 17.054688 8.425781 C 17.257812 8.425781 17.460938 8.425781 17.664062 8.425781 C 17.824219 8.738281 18.082031 8.929688 18.4375 8.996094 C 18.671875 8.996094 18.910156 8.992188 19.144531 8.984375 C 19.636719 9.050781 20.015625 9.285156 20.28125 9.691406 C 19.070312 9.691406 17.863281 9.691406 16.652344 9.691406 C 17.046875 9.351562 17.179688 8.929688 17.054688 8.425781 Z M 17.054688 8.425781 "/>
</g>
<mask id="mask22">
  <g filter="url(#alpha)">
<rect x="0" y="0" width="32" height="31" style="fill:rgb(0%,0%,0%);fill-opacity:0.996078;stroke:none;"/>
  </g>
</mask>
<clipPath id="clip23">
  <rect x="0" y="0" width="32" height="31"/>
</clipPath>
<g id="surface71" clip-path="url(#clip23)">
<path style=" stroke:none;fill-rule:evenodd;fill:rgb(88.627451%,23.137255%,34.901961%);fill-opacity:1;" d="M 19.65625 8.425781 C 21.058594 8.425781 22.457031 8.425781 23.855469 8.425781 C 24.191406 8.839844 24.511719 9.261719 24.828125 9.691406 C 23.894531 9.691406 22.960938 9.691406 22.023438 9.691406 C 21.921875 9.640625 21.8125 9.605469 21.699219 9.585938 C 21.511719 9.578125 21.328125 9.585938 21.140625 9.605469 C 20.484375 9.566406 20.015625 9.257812 19.738281 8.671875 C 19.707031 8.589844 19.679688 8.511719 19.65625 8.425781 Z M 19.65625 8.425781 "/>
</g>
<mask id="mask23">
  <g filter="url(#alpha)">
<rect x="0" y="0" width="32" height="31" style="fill:rgb(0%,0%,0%);fill-opacity:0.992157;stroke:none;"/>
  </g>
</mask>
<clipPath id="clip24">
  <rect x="0" y="0" width="32" height="31"/>
</clipPath>
<g id="surface74" clip-path="url(#clip24)">
<path style=" stroke:none;fill-rule:evenodd;fill:rgb(88.627451%,23.137255%,34.509804%);fill-opacity:1;" d="M 27.445312 8.425781 C 28.082031 8.425781 28.714844 8.425781 29.351562 8.425781 C 29.449219 8.542969 29.542969 8.65625 29.636719 8.777344 C 30.101562 8.714844 30.542969 8.789062 30.960938 8.996094 C 31.253906 9.164062 31.476562 9.394531 31.632812 9.691406 C 31.25 9.691406 30.867188 9.691406 30.484375 9.691406 C 30.246094 9.578125 30 9.546875 29.738281 9.597656 C 29.644531 9.617188 29.550781 9.648438 29.464844 9.691406 C 29.082031 9.691406 28.699219 9.691406 28.316406 9.691406 C 28.332031 9.660156 28.347656 9.636719 28.367188 9.609375 C 28.058594 9.21875 27.75 8.824219 27.445312 8.425781 Z M 27.445312 8.425781 "/>
</g>
<mask id="mask24">
  <g filter="url(#alpha)">
<rect x="0" y="0" width="32" height="31" style="fill:rgb(0%,0%,0%);fill-opacity:0.980392;stroke:none;"/>
  </g>
</mask>
<clipPath id="clip25">
  <rect x="0" y="0" width="32" height="31"/>
</clipPath>
<g id="surface77" clip-path="url(#clip25)">
<path style=" stroke:none;fill-rule:evenodd;fill:rgb(88.627451%,24.705882%,34.117647%);fill-opacity:1;" d="M 0.269531 9.691406 C 0.648438 9.691406 1.03125 9.691406 1.414062 9.691406 C 1.355469 9.726562 1.296875 9.761719 1.238281 9.800781 C 0.898438 9.800781 0.558594 9.800781 0.21875 9.800781 C 0.230469 9.761719 0.246094 9.722656 0.269531 9.691406 Z M 0.269531 9.691406 "/>
</g>
<mask id="mask25">
  <g filter="url(#alpha)">
<rect x="0" y="0" width="32" height="31" style="fill:rgb(0%,0%,0%);fill-opacity:0.984314;stroke:none;"/>
  </g>
</mask>
<clipPath id="clip26">
  <rect x="0" y="0" width="32" height="31"/>
</clipPath>
<g id="surface80" clip-path="url(#clip26)">
<path style=" stroke:none;fill-rule:evenodd;fill:rgb(88.627451%,24.705882%,34.117647%);fill-opacity:1;" d="M 2.4375 9.691406 C 2.8125 9.691406 3.191406 9.691406 3.570312 9.691406 C 3.597656 9.722656 3.613281 9.757812 3.621094 9.800781 C 3.28125 9.800781 2.9375 9.800781 2.597656 9.800781 C 2.542969 9.765625 2.488281 9.730469 2.4375 9.691406 Z M 2.4375 9.691406 "/>
</g>
<mask id="mask26">
  <g filter="url(#alpha)">
<rect x="0" y="0" width="32" height="31" style="fill:rgb(0%,0%,0%);fill-opacity:0.992157;stroke:none;"/>
  </g>
</mask>
<clipPath id="clip27">
  <rect x="0" y="0" width="32" height="31"/>
</clipPath>
<g id="surface83" clip-path="url(#clip27)">
<path style=" stroke:none;fill-rule:evenodd;fill:rgb(88.627451%,24.705882%,34.117647%);fill-opacity:1;" d="M 6.960938 9.691406 C 7.960938 9.691406 8.960938 9.691406 9.960938 9.691406 C 9.90625 9.726562 9.847656 9.761719 9.789062 9.800781 C 8.820312 9.800781 7.851562 9.800781 6.882812 9.800781 C 6.90625 9.761719 6.929688 9.726562 6.960938 9.691406 Z M 6.960938 9.691406 "/>
</g>
<mask id="mask27">
  <g filter="url(#alpha)">
<rect x="0" y="0" width="32" height="31" style="fill:rgb(0%,0%,0%);fill-opacity:0.992157;stroke:none;"/>
  </g>
</mask>
<clipPath id="clip28">
  <rect x="0" y="0" width="32" height="31"/>
</clipPath>
<g id="surface86" clip-path="url(#clip28)">
<path style=" stroke:none;fill-rule:evenodd;fill:rgb(88.627451%,24.705882%,34.117647%);fill-opacity:1;" d="M 11.707031 9.691406 C 12.871094 9.691406 14.035156 9.691406 15.195312 9.691406 C 15.253906 9.726562 15.3125 9.761719 15.371094 9.800781 C 14.855469 9.800781 14.339844 9.800781 13.824219 9.800781 C 13.757812 9.800781 13.691406 9.800781 13.625 9.800781 C 12.964844 9.800781 12.304688 9.800781 11.644531 9.800781 C 11.664062 9.761719 11.683594 9.726562 11.707031 9.691406 Z M 11.707031 9.691406 "/>
</g>
<mask id="mask28">
  <g filter="url(#alpha)">
<rect x="0" y="0" width="32" height="31" style="fill:rgb(0%,0%,0%);fill-opacity:0.992157;stroke:none;"/>
  </g>
</mask>
<clipPath id="clip29">
  <rect x="0" y="0" width="32" height="31"/>
</clipPath>
<g id="surface89" clip-path="url(#clip29)">
<path style=" stroke:none;fill-rule:evenodd;fill:rgb(88.627451%,24.705882%,34.117647%);fill-opacity:1;" d="M 16.652344 9.691406 C 17.863281 9.691406 19.070312 9.691406 20.28125 9.691406 C 20.304688 9.722656 20.328125 9.761719 20.34375 9.800781 C 19.679688 9.800781 19.011719 9.800781 18.347656 9.800781 C 18.28125 9.800781 18.214844 9.800781 18.148438 9.800781 C 17.59375 9.800781 17.035156 9.800781 16.480469 9.800781 C 16.539062 9.761719 16.597656 9.726562 16.652344 9.691406 Z M 16.652344 9.691406 "/>
</g>
<mask id="mask29">
  <g filter="url(#alpha)">
<rect x="0" y="0" width="32" height="31" style="fill:rgb(0%,0%,0%);fill-opacity:0.992157;stroke:none;"/>
  </g>
</mask>
<clipPath id="clip30">
  <rect x="0" y="0" width="32" height="31"/>
</clipPath>
<g id="surface92" clip-path="url(#clip30)">
<path style=" stroke:none;fill-rule:evenodd;fill:rgb(88.627451%,24.705882%,34.117647%);fill-opacity:1;" d="M 22.023438 9.691406 C 22.960938 9.691406 23.894531 9.691406 24.828125 9.691406 C 24.859375 9.722656 24.890625 9.761719 24.914062 9.800781 C 24.011719 9.800781 23.105469 9.800781 22.199219 9.800781 C 22.140625 9.761719 22.082031 9.726562 22.023438 9.691406 Z M 22.023438 9.691406 "/>
</g>
<mask id="mask30">
  <g filter="url(#alpha)">
<rect x="0" y="0" width="32" height="31" style="fill:rgb(0%,0%,0%);fill-opacity:0.984314;stroke:none;"/>
  </g>
</mask>
<clipPath id="clip31">
  <rect x="0" y="0" width="32" height="31"/>
</clipPath>
<g id="surface95" clip-path="url(#clip31)">
<path style=" stroke:none;fill-rule:evenodd;fill:rgb(88.627451%,24.705882%,34.117647%);fill-opacity:1;" d="M 28.316406 9.691406 C 28.699219 9.691406 29.082031 9.691406 29.464844 9.691406 C 29.410156 9.722656 29.355469 9.761719 29.300781 9.800781 C 28.957031 9.800781 28.613281 9.800781 28.269531 9.800781 C 28.289062 9.765625 28.304688 9.726562 28.316406 9.691406 Z M 28.316406 9.691406 "/>
</g>
<mask id="mask31">
  <g filter="url(#alpha)">
<rect x="0" y="0" width="32" height="31" style="fill:rgb(0%,0%,0%);fill-opacity:0.984314;stroke:none;"/>
  </g>
</mask>
<clipPath id="clip32">
  <rect x="0" y="0" width="32" height="31"/>
</clipPath>
<g id="surface98" clip-path="url(#clip32)">
<path style=" stroke:none;fill-rule:evenodd;fill:rgb(88.627451%,24.705882%,34.117647%);fill-opacity:1;" d="M 30.484375 9.691406 C 30.867188 9.691406 31.25 9.691406 31.632812 9.691406 C 31.652344 9.726562 31.667969 9.761719 31.683594 9.800781 C 31.335938 9.800781 30.992188 9.800781 30.648438 9.800781 C 30.59375 9.761719 30.542969 9.722656 30.484375 9.691406 Z M 30.484375 9.691406 "/>
</g>
<mask id="mask32">
  <g filter="url(#alpha)">
<rect x="0" y="0" width="32" height="31" style="fill:rgb(0%,0%,0%);fill-opacity:0.988235;stroke:none;"/>
  </g>
</mask>
<clipPath id="clip33">
  <rect x="0" y="0" width="32" height="31"/>
</clipPath>
<g id="surface101" clip-path="url(#clip33)">
<path style=" stroke:none;fill-rule:evenodd;fill:rgb(89.019608%,25.490196%,33.72549%);fill-opacity:1;" d="M 0.21875 9.800781 C 0.558594 9.800781 0.898438 9.800781 1.238281 9.800781 C 0.972656 10.078125 0.882812 10.402344 0.972656 10.78125 C 0.988281 10.839844 1.011719 10.898438 1.039062 10.953125 C 0.738281 10.953125 0.433594 10.953125 0.128906 10.953125 C 0.078125 10.648438 0.0820312 10.347656 0.136719 10.046875 C 0.15625 9.960938 0.183594 9.878906 0.21875 9.800781 Z M 0.21875 9.800781 "/>
</g>
<mask id="mask33">
  <g filter="url(#alpha)">
<rect x="0" y="0" width="32" height="31" style="fill:rgb(0%,0%,0%);fill-opacity:0.988235;stroke:none;"/>
  </g>
</mask>
<clipPath id="clip34">
  <rect x="0" y="0" width="32" height="31"/>
</clipPath>
<g id="surface104" clip-path="url(#clip34)">
<path style=" stroke:none;fill-rule:evenodd;fill:rgb(89.019608%,25.490196%,33.72549%);fill-opacity:1;" d="M 2.597656 9.800781 C 2.9375 9.800781 3.28125 9.800781 3.621094 9.800781 C 3.6875 9.949219 3.726562 10.101562 3.738281 10.265625 C 3.753906 10.496094 3.742188 10.726562 3.707031 10.953125 C 3.40625 10.953125 3.109375 10.953125 2.808594 10.953125 C 2.898438 10.734375 2.921875 10.511719 2.878906 10.277344 C 2.835938 10.089844 2.742188 9.929688 2.597656 9.800781 Z M 2.597656 9.800781 "/>
</g>
<mask id="mask34">
  <g filter="url(#alpha)">
<rect x="0" y="0" width="32" height="31" style="fill:rgb(0%,0%,0%);fill-opacity:0.996078;stroke:none;"/>
  </g>
</mask>
<clipPath id="clip35">
  <rect x="0" y="0" width="32" height="31"/>
</clipPath>
<g id="surface107" clip-path="url(#clip35)">
<path style=" stroke:none;fill-rule:evenodd;fill:rgb(89.019608%,25.490196%,33.72549%);fill-opacity:1;" d="M 6.882812 9.800781 C 7.851562 9.800781 8.820312 9.800781 9.789062 9.800781 C 9.4375 10.121094 9.339844 10.503906 9.488281 10.953125 C 8.449219 10.953125 7.414062 10.953125 6.375 10.953125 C 6.304688 10.875 6.238281 10.792969 6.175781 10.707031 C 6.40625 10.398438 6.640625 10.097656 6.882812 9.800781 Z M 6.882812 9.800781 "/>
</g>
<mask id="mask35">
  <g filter="url(#alpha)">
<rect x="0" y="0" width="32" height="31" style="fill:rgb(0%,0%,0%);fill-opacity:0.988235;stroke:none;"/>
  </g>
</mask>
<clipPath id="clip36">
  <rect x="0" y="0" width="32" height="31"/>
</clipPath>
<g id="surface110" clip-path="url(#clip36)">
<path style=" stroke:none;fill-rule:evenodd;fill:rgb(89.019608%,25.490196%,33.72549%);fill-opacity:1;" d="M 11.644531 9.800781 C 12.304688 9.800781 12.964844 9.800781 13.625 9.800781 C 13.070312 9.886719 12.71875 10.195312 12.574219 10.730469 C 12.558594 10.804688 12.550781 10.878906 12.554688 10.953125 C 12.175781 10.953125 11.796875 10.953125 11.421875 10.953125 C 11.472656 10.78125 11.488281 10.605469 11.46875 10.425781 C 11.480469 10.203125 11.539062 9.992188 11.644531 9.800781 Z M 11.644531 9.800781 "/>
</g>
<mask id="mask36">
  <g filter="url(#alpha)">
<rect x="0" y="0" width="32" height="31" style="fill:rgb(0%,0%,0%);fill-opacity:0.984314;stroke:none;"/>
  </g>
</mask>
<clipPath id="clip37">
  <rect x="0" y="0" width="32" height="31"/>
</clipPath>
<g id="surface113" clip-path="url(#clip37)">
<path style=" stroke:none;fill-rule:evenodd;fill:rgb(89.019608%,25.098039%,33.72549%);fill-opacity:1;" d="M 13.824219 9.800781 C 14.339844 9.800781 14.855469 9.800781 15.371094 9.800781 C 15.625 9.921875 15.890625 9.957031 16.167969 9.90625 C 16.277344 9.878906 16.378906 9.847656 16.480469 9.800781 C 17.035156 9.800781 17.59375 9.800781 18.148438 9.800781 C 17.867188 9.832031 17.621094 9.945312 17.414062 10.136719 C 16.945312 10.71875 16.339844 10.941406 15.59375 10.8125 C 15.179688 10.714844 14.84375 10.5 14.585938 10.167969 C 14.375 9.957031 14.121094 9.835938 13.824219 9.800781 Z M 13.824219 9.800781 "/>
</g>
<mask id="mask37">
  <g filter="url(#alpha)">
<rect x="0" y="0" width="32" height="31" style="fill:rgb(0%,0%,0%);fill-opacity:0.988235;stroke:none;"/>
  </g>
</mask>
<clipPath id="clip38">
  <rect x="0" y="0" width="32" height="31"/>
</clipPath>
<g id="surface116" clip-path="url(#clip38)">
<path style=" stroke:none;fill-rule:evenodd;fill:rgb(89.019608%,25.490196%,33.72549%);fill-opacity:1;" d="M 18.347656 9.800781 C 19.011719 9.800781 19.679688 9.800781 20.34375 9.800781 C 20.472656 10.039062 20.527344 10.292969 20.503906 10.566406 C 20.511719 10.699219 20.535156 10.828125 20.578125 10.953125 C 20.191406 10.953125 19.808594 10.953125 19.421875 10.953125 C 19.394531 10.515625 19.195312 10.183594 18.824219 9.953125 C 18.671875 9.875 18.515625 9.824219 18.347656 9.800781 Z M 18.347656 9.800781 "/>
</g>
<mask id="mask38">
  <g filter="url(#alpha)">
<rect x="0" y="0" width="32" height="31" style="fill:rgb(0%,0%,0%);fill-opacity:0.996078;stroke:none;"/>
  </g>
</mask>
<clipPath id="clip39">
  <rect x="0" y="0" width="32" height="31"/>
</clipPath>
<g id="surface119" clip-path="url(#clip39)">
<path style=" stroke:none;fill-rule:evenodd;fill:rgb(89.019608%,25.490196%,33.72549%);fill-opacity:1;" d="M 22.199219 9.800781 C 23.105469 9.800781 24.011719 9.800781 24.914062 9.800781 C 25.144531 10.101562 25.371094 10.40625 25.601562 10.707031 C 25.539062 10.789062 25.476562 10.871094 25.414062 10.953125 C 24.441406 10.953125 23.46875 10.953125 22.5 10.953125 C 22.648438 10.503906 22.550781 10.121094 22.199219 9.800781 Z M 22.199219 9.800781 "/>
</g>
<mask id="mask39">
  <g filter="url(#alpha)">
<rect x="0" y="0" width="32" height="31" style="fill:rgb(0%,0%,0%);fill-opacity:0.984314;stroke:none;"/>
  </g>
</mask>
<clipPath id="clip40">
  <rect x="0" y="0" width="32" height="31"/>
</clipPath>
<g id="surface122" clip-path="url(#clip40)">
<path style=" stroke:none;fill-rule:evenodd;fill:rgb(89.019608%,25.490196%,33.72549%);fill-opacity:1;" d="M 28.269531 9.800781 C 28.613281 9.800781 28.957031 9.800781 29.300781 9.800781 C 29.046875 10.046875 28.949219 10.34375 29.007812 10.695312 C 29.023438 10.785156 29.050781 10.871094 29.089844 10.953125 C 28.792969 10.953125 28.492188 10.953125 28.191406 10.953125 C 28.109375 10.5625 28.132812 10.179688 28.269531 9.800781 Z M 28.269531 9.800781 "/>
</g>
<mask id="mask40">
  <g filter="url(#alpha)">
<rect x="0" y="0" width="32" height="31" style="fill:rgb(0%,0%,0%);fill-opacity:0.988235;stroke:none;"/>
  </g>
</mask>
<clipPath id="clip41">
  <rect x="0" y="0" width="32" height="31"/>
</clipPath>
<g id="surface125" clip-path="url(#clip41)">
<path style=" stroke:none;fill-rule:evenodd;fill:rgb(89.019608%,25.490196%,33.72549%);fill-opacity:1;" d="M 30.648438 9.800781 C 30.992188 9.800781 31.335938 9.800781 31.683594 9.800781 C 31.816406 10.179688 31.84375 10.5625 31.757812 10.953125 C 31.457031 10.953125 31.160156 10.953125 30.859375 10.953125 C 30.996094 10.632812 30.984375 10.320312 30.828125 10.007812 C 30.773438 9.933594 30.714844 9.863281 30.648438 9.800781 Z M 30.648438 9.800781 "/>
</g>
<mask id="mask41">
  <g filter="url(#alpha)">
<rect x="0" y="0" width="32" height="31" style="fill:rgb(0%,0%,0%);fill-opacity:0.988235;stroke:none;"/>
  </g>
</mask>
<clipPath id="clip42">
  <rect x="0" y="0" width="32" height="31"/>
</clipPath>
<g id="surface128" clip-path="url(#clip42)">
<path style=" stroke:none;fill-rule:evenodd;fill:rgb(89.411765%,27.843137%,32.54902%);fill-opacity:1;" d="M 0.128906 10.953125 C 0.433594 10.953125 0.738281 10.953125 1.039062 10.953125 C 1.195312 11.230469 1.4375 11.394531 1.761719 11.4375 C 2.125 11.484375 2.4375 11.378906 2.691406 11.125 C 2.734375 11.066406 2.773438 11.011719 2.808594 10.953125 C 3.109375 10.953125 3.40625 10.953125 3.707031 10.953125 C 3.671875 11.109375 3.617188 11.261719 3.539062 11.40625 C 3.464844 11.53125 3.378906 11.644531 3.285156 11.753906 C 3.433594 11.945312 3.589844 12.136719 3.746094 12.324219 C 3.109375 12.324219 2.472656 12.324219 1.839844 12.324219 C 1.820312 12.300781 1.796875 12.28125 1.777344 12.257812 C 1.164062 12.222656 0.683594 11.957031 0.335938 11.46875 C 0.242188 11.304688 0.171875 11.132812 0.128906 10.953125 Z M 0.128906 10.953125 "/>
</g>
<mask id="mask42">
  <g filter="url(#alpha)">
<rect x="0" y="0" width="32" height="31" style="fill:rgb(0%,0%,0%);fill-opacity:0.992157;stroke:none;"/>
  </g>
</mask>
<clipPath id="clip43">
  <rect x="0" y="0" width="32" height="31"/>
</clipPath>
<g id="surface131" clip-path="url(#clip43)">
<path style=" stroke:none;fill-rule:evenodd;fill:rgb(89.411765%,27.843137%,32.54902%);fill-opacity:1;" d="M 6.375 10.953125 C 7.414062 10.953125 8.449219 10.953125 9.488281 10.953125 C 9.667969 11.367188 9.988281 11.582031 10.449219 11.601562 C 10.90625 11.578125 11.230469 11.363281 11.421875 10.953125 C 11.796875 10.953125 12.175781 10.953125 12.554688 10.953125 C 12.566406 11.445312 12.796875 11.800781 13.238281 12.023438 C 13.746094 12.21875 14.191406 12.132812 14.585938 11.765625 C 14.9375 11.316406 15.40625 11.085938 15.988281 11.074219 C 16.417969 11.082031 16.796875 11.21875 17.128906 11.484375 C 17.253906 11.621094 17.382812 11.75 17.515625 11.878906 C 17.9375 12.179688 18.382812 12.207031 18.847656 11.964844 C 19.21875 11.726562 19.410156 11.390625 19.421875 10.953125 C 19.808594 10.953125 20.191406 10.953125 20.578125 10.953125 C 20.757812 11.367188 21.078125 11.582031 21.539062 11.601562 C 22 11.582031 22.320312 11.367188 22.5 10.953125 C 23.46875 10.953125 24.441406 10.953125 25.414062 10.953125 C 25.054688 11.414062 24.6875 11.871094 24.316406 12.324219 C 23.300781 12.324219 22.28125 12.324219 21.265625 12.324219 C 20.742188 11.933594 20.21875 11.933594 19.695312 12.324219 C 18.714844 12.324219 17.734375 12.324219 16.753906 12.324219 C 16.234375 11.933594 15.714844 11.933594 15.195312 12.324219 C 14.207031 12.324219 13.21875 12.324219 12.230469 12.324219 C 11.710938 11.933594 11.191406 11.933594 10.671875 12.324219 C 9.613281 12.324219 8.554688 12.324219 7.496094 12.324219 C 7.117188 11.871094 6.742188 11.414062 6.375 10.953125 Z M 6.375 10.953125 "/>
</g>
<mask id="mask43">
  <g filter="url(#alpha)">
<rect x="0" y="0" width="32" height="31" style="fill:rgb(0%,0%,0%);fill-opacity:0.988235;stroke:none;"/>
  </g>
</mask>
<clipPath id="clip44">
  <rect x="0" y="0" width="32" height="31"/>
</clipPath>
<g id="surface134" clip-path="url(#clip44)">
<path style=" stroke:none;fill-rule:evenodd;fill:rgb(89.411765%,27.843137%,32.54902%);fill-opacity:1;" d="M 28.191406 10.953125 C 28.492188 10.953125 28.792969 10.953125 29.089844 10.953125 C 29.285156 11.285156 29.582031 11.445312 29.976562 11.441406 C 30.367188 11.445312 30.660156 11.28125 30.859375 10.953125 C 31.160156 10.953125 31.457031 10.953125 31.757812 10.953125 C 31.640625 11.46875 31.34375 11.84375 30.859375 12.074219 C 30.523438 12.226562 30.167969 12.285156 29.800781 12.25 C 29.765625 12.269531 29.738281 12.292969 29.714844 12.324219 C 29.15625 12.324219 28.601562 12.324219 28.042969 12.324219 C 28.210938 12.109375 28.378906 11.894531 28.554688 11.683594 C 28.367188 11.472656 28.246094 11.230469 28.191406 10.953125 Z M 28.191406 10.953125 "/>
</g>
<mask id="mask44">
  <g filter="url(#alpha)">
<rect x="0" y="0" width="32" height="31" style="fill:rgb(0%,0%,0%);fill-opacity:0.992157;stroke:none;"/>
  </g>
</mask>
<clipPath id="clip45">
  <rect x="0" y="0" width="32" height="31"/>
</clipPath>
<g id="surface137" clip-path="url(#clip45)">
<path style=" stroke:none;fill-rule:evenodd;fill:rgb(90.196078%,29.803922%,32.156863%);fill-opacity:1;" d="M 1.839844 12.324219 C 2.472656 12.324219 3.109375 12.324219 3.746094 12.324219 C 3.902344 12.515625 4.058594 12.707031 4.207031 12.902344 C 3.570312 12.902344 2.933594 12.902344 2.300781 12.902344 C 2.140625 12.714844 1.988281 12.519531 1.839844 12.324219 Z M 1.839844 12.324219 "/>
</g>
<mask id="mask45">
  <g filter="url(#alpha)">
<rect x="0" y="0" width="32" height="31" style="fill:rgb(0%,0%,0%);fill-opacity:0.992157;stroke:none;"/>
  </g>
</mask>
<clipPath id="clip46">
  <rect x="0" y="0" width="32" height="31"/>
</clipPath>
<g id="surface140" clip-path="url(#clip46)">
<path style=" stroke:none;fill-rule:evenodd;fill:rgb(90.196078%,29.803922%,32.156863%);fill-opacity:1;" d="M 7.496094 12.324219 C 8.554688 12.324219 9.613281 12.324219 10.671875 12.324219 C 10.503906 12.488281 10.382812 12.679688 10.3125 12.902344 C 9.527344 12.902344 8.742188 12.902344 7.957031 12.902344 C 7.796875 12.710938 7.644531 12.519531 7.496094 12.324219 Z M 7.496094 12.324219 "/>
</g>
<mask id="mask46">
  <g filter="url(#alpha)">
<rect x="0" y="0" width="32" height="31" style="fill:rgb(0%,0%,0%);fill-opacity:0.992157;stroke:none;"/>
  </g>
</mask>
<clipPath id="clip47">
  <rect x="0" y="0" width="32" height="31"/>
</clipPath>
<g id="surface143" clip-path="url(#clip47)">
<path style=" stroke:none;fill-rule:evenodd;fill:rgb(90.196078%,29.803922%,32.156863%);fill-opacity:1;" d="M 12.230469 12.324219 C 13.21875 12.324219 14.207031 12.324219 15.195312 12.324219 C 15.082031 12.453125 14.964844 12.578125 14.835938 12.699219 C 14.730469 12.78125 14.617188 12.847656 14.5 12.902344 C 13.976562 12.902344 13.453125 12.902344 12.929688 12.902344 C 12.800781 12.84375 12.6875 12.773438 12.578125 12.6875 C 12.460938 12.566406 12.34375 12.445312 12.230469 12.324219 Z M 12.230469 12.324219 "/>
</g>
<mask id="mask47">
  <g filter="url(#alpha)">
<rect x="0" y="0" width="32" height="31" style="fill:rgb(0%,0%,0%);fill-opacity:0.992157;stroke:none;"/>
  </g>
</mask>
<clipPath id="clip48">
  <rect x="0" y="0" width="32" height="31"/>
</clipPath>
<g id="surface146" clip-path="url(#clip48)">
<path style=" stroke:none;fill-rule:evenodd;fill:rgb(90.196078%,29.803922%,32.156863%);fill-opacity:1;" d="M 16.753906 12.324219 C 17.734375 12.324219 18.714844 12.324219 19.695312 12.324219 C 19.519531 12.484375 19.398438 12.675781 19.332031 12.902344 C 18.59375 12.902344 17.855469 12.902344 17.117188 12.902344 C 17.050781 12.675781 16.929688 12.484375 16.753906 12.324219 Z M 16.753906 12.324219 "/>
</g>
<mask id="mask48">
  <g filter="url(#alpha)">
<rect x="0" y="0" width="32" height="31" style="fill:rgb(0%,0%,0%);fill-opacity:0.992157;stroke:none;"/>
  </g>
</mask>
<clipPath id="clip49">
  <rect x="0" y="0" width="32" height="31"/>
</clipPath>
<g id="surface149" clip-path="url(#clip49)">
<path style=" stroke:none;fill-rule:evenodd;fill:rgb(90.196078%,29.803922%,32.156863%);fill-opacity:1;" d="M 21.265625 12.324219 C 22.28125 12.324219 23.300781 12.324219 24.316406 12.324219 C 24.171875 12.519531 24.023438 12.710938 23.871094 12.902344 C 23.121094 12.902344 22.375 12.902344 21.625 12.902344 C 21.558594 12.675781 21.4375 12.484375 21.265625 12.324219 Z M 21.265625 12.324219 "/>
</g>
<mask id="mask49">
  <g filter="url(#alpha)">
<rect x="0" y="0" width="32" height="31" style="fill:rgb(0%,0%,0%);fill-opacity:0.988235;stroke:none;"/>
  </g>
</mask>
<clipPath id="clip50">
  <rect x="0" y="0" width="32" height="31"/>
</clipPath>
<g id="surface152" clip-path="url(#clip50)">
<path style=" stroke:none;fill-rule:evenodd;fill:rgb(90.196078%,29.803922%,32.156863%);fill-opacity:1;" d="M 28.042969 12.324219 C 28.601562 12.324219 29.15625 12.324219 29.714844 12.324219 C 29.574219 12.523438 29.421875 12.714844 29.265625 12.902344 C 28.699219 12.902344 28.136719 12.902344 27.570312 12.902344 C 27.71875 12.703125 27.875 12.511719 28.042969 12.324219 Z M 28.042969 12.324219 "/>
</g>
<mask id="mask50">
  <g filter="url(#alpha)">
<rect x="0" y="0" width="32" height="31" style="fill:rgb(0%,0%,0%);fill-opacity:0.992157;stroke:none;"/>
  </g>
</mask>
<clipPath id="clip51">
  <rect x="0" y="0" width="32" height="31"/>
</clipPath>
<g id="surface155" clip-path="url(#clip51)">
<path style=" stroke:none;fill-rule:evenodd;fill:rgb(90.196078%,30.980392%,31.372549%);fill-opacity:1;" d="M 2.300781 12.902344 C 2.933594 12.902344 3.570312 12.902344 4.207031 12.902344 C 4.464844 13.199219 4.714844 13.507812 4.953125 13.820312 C 4.316406 13.820312 3.683594 13.820312 3.046875 13.820312 C 2.789062 13.519531 2.539062 13.214844 2.300781 12.902344 Z M 2.300781 12.902344 "/>
</g>
<mask id="mask51">
  <g filter="url(#alpha)">
<rect x="0" y="0" width="32" height="31" style="fill:rgb(0%,0%,0%);fill-opacity:0.992157;stroke:none;"/>
  </g>
</mask>
<clipPath id="clip52">
  <rect x="0" y="0" width="32" height="31"/>
</clipPath>
<g id="surface158" clip-path="url(#clip52)">
<path style=" stroke:none;fill-rule:evenodd;fill:rgb(90.196078%,30.980392%,31.372549%);fill-opacity:1;" d="M 7.957031 12.902344 C 8.742188 12.902344 9.527344 12.902344 10.3125 12.902344 C 10.234375 13.226562 10.285156 13.535156 10.460938 13.820312 C 9.875 13.820312 9.289062 13.820312 8.703125 13.820312 C 8.453125 13.515625 8.207031 13.207031 7.957031 12.902344 Z M 7.957031 12.902344 "/>
</g>
<mask id="mask52">
  <g filter="url(#alpha)">
<rect x="0" y="0" width="32" height="31" style="fill:rgb(0%,0%,0%);fill-opacity:0.952941;stroke:none;"/>
  </g>
</mask>
<clipPath id="clip53">
  <rect x="0" y="0" width="32" height="31"/>
</clipPath>
<g id="surface161" clip-path="url(#clip53)">
<path style=" stroke:none;fill-rule:evenodd;fill:rgb(89.803922%,30.588235%,31.372549%);fill-opacity:1;" d="M 12.929688 12.902344 C 13.453125 12.902344 13.976562 12.902344 14.5 12.902344 C 14.121094 13.082031 13.726562 13.128906 13.316406 13.042969 C 13.175781 13.011719 13.050781 12.964844 12.929688 12.902344 Z M 12.929688 12.902344 "/>
</g>
<mask id="mask53">
  <g filter="url(#alpha)">
<rect x="0" y="0" width="32" height="31" style="fill:rgb(0%,0%,0%);fill-opacity:0.996078;stroke:none;"/>
  </g>
</mask>
<clipPath id="clip54">
  <rect x="0" y="0" width="32" height="31"/>
</clipPath>
<g id="surface164" clip-path="url(#clip54)">
<path style=" stroke:none;fill-rule:evenodd;fill:rgb(90.196078%,30.980392%,31.372549%);fill-opacity:1;" d="M 17.117188 12.902344 C 17.855469 12.902344 18.59375 12.902344 19.332031 12.902344 C 19.257812 13.230469 19.304688 13.535156 19.484375 13.820312 C 18.644531 13.820312 17.804688 13.820312 16.964844 13.820312 C 17.144531 13.535156 17.191406 13.226562 17.117188 12.902344 Z M 17.117188 12.902344 "/>
</g>
<mask id="mask54">
  <g filter="url(#alpha)">
<rect x="0" y="0" width="32" height="31" style="fill:rgb(0%,0%,0%);fill-opacity:0.992157;stroke:none;"/>
  </g>
</mask>
<clipPath id="clip55">
  <rect x="0" y="0" width="32" height="31"/>
</clipPath>
<g id="surface167" clip-path="url(#clip55)">
<path style=" stroke:none;fill-rule:evenodd;fill:rgb(90.196078%,30.980392%,31.372549%);fill-opacity:1;" d="M 21.625 12.902344 C 22.375 12.902344 23.121094 12.902344 23.871094 12.902344 C 23.628906 13.210938 23.382812 13.519531 23.132812 13.820312 C 22.582031 13.820312 22.027344 13.820312 21.476562 13.820312 C 21.65625 13.535156 21.707031 13.230469 21.625 12.902344 Z M 21.625 12.902344 "/>
</g>
<mask id="mask55">
  <g filter="url(#alpha)">
<rect x="0" y="0" width="32" height="31" style="fill:rgb(0%,0%,0%);fill-opacity:0.988235;stroke:none;"/>
  </g>
</mask>
<clipPath id="clip56">
  <rect x="0" y="0" width="32" height="31"/>
</clipPath>
<g id="surface170" clip-path="url(#clip56)">
<path style=" stroke:none;fill-rule:evenodd;fill:rgb(90.196078%,30.980392%,31.372549%);fill-opacity:1;" d="M 27.570312 12.902344 C 28.136719 12.902344 28.699219 12.902344 29.265625 12.902344 C 29.03125 13.210938 28.796875 13.519531 28.554688 13.820312 C 27.976562 13.820312 27.398438 13.820312 26.824219 13.820312 C 27.070312 13.511719 27.316406 13.207031 27.570312 12.902344 Z M 27.570312 12.902344 "/>
</g>
<mask id="mask56">
  <g filter="url(#alpha)">
<rect x="0" y="0" width="32" height="31" style="fill:rgb(0%,0%,0%);fill-opacity:0.980392;stroke:none;"/>
  </g>
</mask>
<clipPath id="clip57">
  <rect x="0" y="0" width="32" height="31"/>
</clipPath>
<g id="surface173" clip-path="url(#clip57)">
<path style=" stroke:none;fill-rule:evenodd;fill:rgb(90.588235%,31.372549%,31.372549%);fill-opacity:1;" d="M 14.960938 13.820312 C 14.128906 13.820312 13.296875 13.820312 12.46875 13.820312 C 12.917969 13.394531 13.453125 13.238281 14.074219 13.347656 C 14.421875 13.417969 14.714844 13.574219 14.960938 13.820312 Z M 14.960938 13.820312 "/>
</g>
<mask id="mask57">
  <g filter="url(#alpha)">
<rect x="0" y="0" width="32" height="31" style="fill:rgb(0%,0%,0%);fill-opacity:0.992157;stroke:none;"/>
  </g>
</mask>
<clipPath id="clip58">
  <rect x="0" y="0" width="32" height="31"/>
</clipPath>
<g id="surface176" clip-path="url(#clip58)">
<path style=" stroke:none;fill-rule:evenodd;fill:rgb(90.588235%,32.156863%,30.980392%);fill-opacity:1;" d="M 3.046875 13.820312 C 3.683594 13.820312 4.316406 13.820312 4.953125 13.820312 C 5.085938 13.972656 5.214844 14.125 5.339844 14.285156 C 4.699219 14.285156 4.058594 14.285156 3.421875 14.285156 C 3.289062 14.136719 3.164062 13.980469 3.046875 13.820312 Z M 3.046875 13.820312 "/>
</g>
<mask id="mask58">
  <g filter="url(#alpha)">
<rect x="0" y="0" width="32" height="31" style="fill:rgb(0%,0%,0%);fill-opacity:0.988235;stroke:none;"/>
  </g>
</mask>
<clipPath id="clip59">
  <rect x="0" y="0" width="32" height="31"/>
</clipPath>
<g id="surface179" clip-path="url(#clip59)">
<path style=" stroke:none;fill-rule:evenodd;fill:rgb(90.588235%,32.156863%,30.980392%);fill-opacity:1;" d="M 8.703125 13.820312 C 9.289062 13.820312 9.875 13.820312 10.460938 13.820312 C 10.601562 14.03125 10.789062 14.183594 11.023438 14.285156 C 10.378906 14.285156 9.734375 14.285156 9.089844 14.285156 C 8.960938 14.132812 8.832031 13.976562 8.703125 13.820312 Z M 8.703125 13.820312 "/>
</g>
<mask id="mask59">
  <g filter="url(#alpha)">
<rect x="0" y="0" width="32" height="31" style="fill:rgb(0%,0%,0%);fill-opacity:0.992157;stroke:none;"/>
  </g>
</mask>
<clipPath id="clip60">
  <rect x="0" y="0" width="32" height="31"/>
</clipPath>
<g id="surface182" clip-path="url(#clip60)">
<path style=" stroke:none;fill-rule:evenodd;fill:rgb(90.588235%,32.156863%,30.980392%);fill-opacity:1;" d="M 12.46875 13.820312 C 13.296875 13.820312 14.128906 13.820312 14.960938 13.820312 C 15.117188 14.023438 15.3125 14.175781 15.546875 14.285156 C 15.011719 14.285156 14.480469 14.285156 13.949219 14.285156 C 13.800781 14.269531 13.652344 14.269531 13.5 14.285156 C 12.960938 14.285156 12.421875 14.285156 11.882812 14.285156 C 12.117188 14.179688 12.3125 14.023438 12.46875 13.820312 Z M 12.46875 13.820312 "/>
</g>
<mask id="mask60">
  <g filter="url(#alpha)">
<rect x="0" y="0" width="32" height="31" style="fill:rgb(0%,0%,0%);fill-opacity:0.992157;stroke:none;"/>
  </g>
</mask>
<clipPath id="clip61">
  <rect x="0" y="0" width="32" height="31"/>
</clipPath>
<g id="surface185" clip-path="url(#clip61)">
<path style=" stroke:none;fill-rule:evenodd;fill:rgb(90.588235%,32.156863%,30.980392%);fill-opacity:1;" d="M 16.964844 13.820312 C 17.804688 13.820312 18.644531 13.820312 19.484375 13.820312 C 19.625 14.03125 19.8125 14.183594 20.042969 14.285156 C 19.519531 14.285156 18.996094 14.285156 18.472656 14.285156 C 18.324219 14.269531 18.175781 14.269531 18.023438 14.285156 C 17.484375 14.285156 16.945312 14.285156 16.40625 14.285156 C 16.636719 14.183594 16.824219 14.027344 16.964844 13.820312 Z M 16.964844 13.820312 "/>
</g>
<mask id="mask61">
  <g filter="url(#alpha)">
<rect x="0" y="0" width="32" height="31" style="fill:rgb(0%,0%,0%);fill-opacity:0.988235;stroke:none;"/>
  </g>
</mask>
<clipPath id="clip62">
  <rect x="0" y="0" width="32" height="31"/>
</clipPath>
<g id="surface188" clip-path="url(#clip62)">
<path style=" stroke:none;fill-rule:evenodd;fill:rgb(90.588235%,32.156863%,30.980392%);fill-opacity:1;" d="M 21.476562 13.820312 C 22.027344 13.820312 22.582031 13.820312 23.132812 13.820312 C 23.019531 13.980469 22.898438 14.136719 22.773438 14.285156 C 22.152344 14.285156 21.535156 14.285156 20.914062 14.285156 C 21.148438 14.183594 21.335938 14.027344 21.476562 13.820312 Z M 21.476562 13.820312 "/>
</g>
<mask id="mask62">
  <g filter="url(#alpha)">
<rect x="0" y="0" width="32" height="31" style="fill:rgb(0%,0%,0%);fill-opacity:0.988235;stroke:none;"/>
  </g>
</mask>
<clipPath id="clip63">
  <rect x="0" y="0" width="32" height="31"/>
</clipPath>
<g id="surface191" clip-path="url(#clip63)">
<path style=" stroke:none;fill-rule:evenodd;fill:rgb(90.588235%,32.156863%,30.980392%);fill-opacity:1;" d="M 26.824219 13.820312 C 27.398438 13.820312 27.976562 13.820312 28.554688 13.820312 C 28.433594 13.980469 28.308594 14.136719 28.179688 14.285156 C 27.601562 14.285156 27.027344 14.285156 26.449219 14.285156 C 26.570312 14.128906 26.691406 13.972656 26.824219 13.820312 Z M 26.824219 13.820312 "/>
</g>
<mask id="mask63">
  <g filter="url(#alpha)">
<rect x="0" y="0" width="32" height="31" style="fill:rgb(0%,0%,0%);fill-opacity:0.992157;stroke:none;"/>
  </g>
</mask>
<clipPath id="clip64">
  <rect x="0" y="0" width="32" height="31"/>
</clipPath>
<g id="surface194" clip-path="url(#clip64)">
<path style=" stroke:none;fill-rule:evenodd;fill:rgb(90.980392%,33.333333%,30.588235%);fill-opacity:1;" d="M 3.421875 14.285156 C 4.058594 14.285156 4.699219 14.285156 5.339844 14.285156 C 5.558594 14.550781 5.773438 14.816406 5.988281 15.082031 C 5.34375 15.082031 4.699219 15.082031 4.054688 15.082031 C 3.839844 14.820312 3.628906 14.554688 3.421875 14.285156 Z M 3.421875 14.285156 "/>
</g>
<mask id="mask64">
  <g filter="url(#alpha)">
<rect x="0" y="0" width="32" height="31" style="fill:rgb(0%,0%,0%);fill-opacity:0.992157;stroke:none;"/>
  </g>
</mask>
<clipPath id="clip65">
  <rect x="0" y="0" width="32" height="31"/>
</clipPath>
<g id="surface197" clip-path="url(#clip65)">
<path style=" stroke:none;fill-rule:evenodd;fill:rgb(90.980392%,33.333333%,30.588235%);fill-opacity:1;" d="M 9.089844 14.285156 C 9.734375 14.285156 10.378906 14.285156 11.023438 14.285156 C 11.308594 14.382812 11.59375 14.382812 11.882812 14.285156 C 12.421875 14.285156 12.960938 14.285156 13.5 14.285156 C 13.058594 14.398438 12.761719 14.664062 12.605469 15.082031 C 11.648438 15.082031 10.695312 15.082031 9.738281 15.082031 C 9.519531 14.820312 9.304688 14.554688 9.089844 14.285156 Z M 9.089844 14.285156 "/>
</g>
<mask id="mask65">
  <g filter="url(#alpha)">
<rect x="0" y="0" width="32" height="31" style="fill:rgb(0%,0%,0%);fill-opacity:0.988235;stroke:none;"/>
  </g>
</mask>
<clipPath id="clip66">
  <rect x="0" y="0" width="32" height="31"/>
</clipPath>
<g id="surface200" clip-path="url(#clip66)">
<path style=" stroke:none;fill-rule:evenodd;fill:rgb(90.980392%,33.333333%,30.588235%);fill-opacity:1;" d="M 13.949219 14.285156 C 14.480469 14.285156 15.011719 14.285156 15.546875 14.285156 C 15.832031 14.382812 16.117188 14.382812 16.40625 14.285156 C 16.945312 14.285156 17.484375 14.285156 18.023438 14.285156 C 17.75 14.34375 17.519531 14.480469 17.332031 14.691406 C 17.25 14.808594 17.144531 14.90625 17.027344 14.992188 C 16.976562 15.027344 16.921875 15.058594 16.867188 15.082031 C 16.277344 15.082031 15.6875 15.082031 15.097656 15.082031 C 14.902344 14.980469 14.746094 14.84375 14.617188 14.667969 C 14.433594 14.472656 14.210938 14.347656 13.949219 14.285156 Z M 13.949219 14.285156 "/>
</g>
<mask id="mask66">
  <g filter="url(#alpha)">
<rect x="0" y="0" width="32" height="31" style="fill:rgb(0%,0%,0%);fill-opacity:0.992157;stroke:none;"/>
  </g>
</mask>
<clipPath id="clip67">
  <rect x="0" y="0" width="32" height="31"/>
</clipPath>
<g id="surface203" clip-path="url(#clip67)">
<path style=" stroke:none;fill-rule:evenodd;fill:rgb(90.980392%,33.333333%,30.588235%);fill-opacity:1;" d="M 18.472656 14.285156 C 18.996094 14.285156 19.519531 14.285156 20.042969 14.285156 C 20.335938 14.382812 20.625 14.382812 20.914062 14.285156 C 21.535156 14.285156 22.152344 14.285156 22.773438 14.285156 C 22.566406 14.554688 22.351562 14.820312 22.136719 15.082031 C 21.214844 15.082031 20.292969 15.082031 19.371094 15.082031 C 19.214844 14.664062 18.914062 14.398438 18.472656 14.285156 Z M 18.472656 14.285156 "/>
</g>
<mask id="mask67">
  <g filter="url(#alpha)">
<rect x="0" y="0" width="32" height="31" style="fill:rgb(0%,0%,0%);fill-opacity:0.992157;stroke:none;"/>
  </g>
</mask>
<clipPath id="clip68">
  <rect x="0" y="0" width="32" height="31"/>
</clipPath>
<g id="surface206" clip-path="url(#clip68)">
<path style=" stroke:none;fill-rule:evenodd;fill:rgb(90.980392%,33.333333%,30.196078%);fill-opacity:1;" d="M 26.449219 14.285156 C 27.027344 14.285156 27.601562 14.285156 28.179688 14.285156 C 27.984375 14.558594 27.773438 14.824219 27.558594 15.082031 C 26.972656 15.082031 26.386719 15.082031 25.800781 15.082031 C 26.007812 14.808594 26.222656 14.542969 26.449219 14.285156 Z M 26.449219 14.285156 "/>
</g>
<mask id="mask68">
  <g filter="url(#alpha)">
<rect x="0" y="0" width="32" height="31" style="fill:rgb(0%,0%,0%);fill-opacity:0.992157;stroke:none;"/>
  </g>
</mask>
<clipPath id="clip69">
  <rect x="0" y="0" width="32" height="31"/>
</clipPath>
<g id="surface209" clip-path="url(#clip69)">
<path style=" stroke:none;fill-rule:evenodd;fill:rgb(91.372549%,35.294118%,29.411765%);fill-opacity:1;" d="M 4.054688 15.082031 C 4.699219 15.082031 5.34375 15.082031 5.988281 15.082031 C 6.367188 15.542969 6.746094 16.003906 7.121094 16.46875 C 6.46875 16.46875 5.816406 16.46875 5.164062 16.46875 C 4.792969 16.007812 4.421875 15.546875 4.054688 15.082031 Z M 4.054688 15.082031 "/>
</g>
<mask id="mask69">
  <g filter="url(#alpha)">
<rect x="0" y="0" width="32" height="31" style="fill:rgb(0%,0%,0%);fill-opacity:0.992157;stroke:none;"/>
  </g>
</mask>
<clipPath id="clip70">
  <rect x="0" y="0" width="32" height="31"/>
</clipPath>
<g id="surface212" clip-path="url(#clip70)">
<path style=" stroke:none;fill-rule:evenodd;fill:rgb(91.372549%,35.294118%,29.411765%);fill-opacity:1;" d="M 9.738281 15.082031 C 10.695312 15.082031 11.648438 15.082031 12.605469 15.082031 C 12.460938 15.683594 12.652344 16.144531 13.175781 16.46875 C 12.40625 16.46875 11.632812 16.46875 10.859375 16.46875 C 10.484375 16.007812 10.113281 15.546875 9.738281 15.082031 Z M 9.738281 15.082031 "/>
</g>
<mask id="mask70">
  <g filter="url(#alpha)">
<rect x="0" y="0" width="32" height="31" style="fill:rgb(0%,0%,0%);fill-opacity:0.964706;stroke:none;"/>
  </g>
</mask>
<clipPath id="clip71">
  <rect x="0" y="0" width="32" height="31"/>
</clipPath>
<g id="surface215" clip-path="url(#clip71)">
<path style=" stroke:none;fill-rule:evenodd;fill:rgb(90.980392%,34.509804%,30.196078%);fill-opacity:1;" d="M 15.097656 15.082031 C 15.6875 15.082031 16.277344 15.082031 16.867188 15.082031 C 16.59375 15.242188 16.300781 15.320312 15.980469 15.316406 C 15.664062 15.316406 15.367188 15.238281 15.097656 15.082031 Z M 15.097656 15.082031 "/>
</g>
<mask id="mask71">
  <g filter="url(#alpha)">
<rect x="0" y="0" width="32" height="31" style="fill:rgb(0%,0%,0%);fill-opacity:0.992157;stroke:none;"/>
  </g>
</mask>
<clipPath id="clip72">
  <rect x="0" y="0" width="32" height="31"/>
</clipPath>
<g id="surface218" clip-path="url(#clip72)">
<path style=" stroke:none;fill-rule:evenodd;fill:rgb(91.372549%,35.294118%,29.411765%);fill-opacity:1;" d="M 19.371094 15.082031 C 20.292969 15.082031 21.214844 15.082031 22.136719 15.082031 C 21.78125 15.550781 21.414062 16.015625 21.039062 16.46875 C 20.289062 16.46875 19.535156 16.46875 18.785156 16.46875 C 19.3125 16.144531 19.507812 15.683594 19.371094 15.082031 Z M 19.371094 15.082031 "/>
</g>
<mask id="mask72">
  <g filter="url(#alpha)">
<rect x="0" y="0" width="32" height="31" style="fill:rgb(0%,0%,0%);fill-opacity:0.992157;stroke:none;"/>
  </g>
</mask>
<clipPath id="clip73">
  <rect x="0" y="0" width="32" height="31"/>
</clipPath>
<g id="surface221" clip-path="url(#clip73)">
<path style=" stroke:none;fill-rule:evenodd;fill:rgb(91.372549%,35.294118%,29.411765%);fill-opacity:1;" d="M 25.800781 15.082031 C 26.386719 15.082031 26.972656 15.082031 27.558594 15.082031 C 27.203125 15.546875 26.847656 16.007812 26.484375 16.46875 C 25.878906 16.46875 25.273438 16.46875 24.667969 16.46875 C 25.039062 16.003906 25.417969 15.542969 25.800781 15.082031 Z M 25.800781 15.082031 "/>
</g>
<mask id="mask73">
  <g filter="url(#alpha)">
<rect x="0" y="0" width="32" height="31" style="fill:rgb(0%,0%,0%);fill-opacity:0.988235;stroke:none;"/>
  </g>
</mask>
<clipPath id="clip74">
  <rect x="0" y="0" width="32" height="31"/>
</clipPath>
<g id="surface224" clip-path="url(#clip74)">
<path style=" stroke:none;fill-rule:evenodd;fill:rgb(91.372549%,35.686275%,29.411765%);fill-opacity:1;" d="M 17.699219 16.46875 C 16.558594 16.46875 15.417969 16.46875 14.273438 16.46875 C 14.371094 16.410156 14.460938 16.339844 14.546875 16.265625 C 15.023438 15.675781 15.636719 15.453125 16.390625 15.59375 C 16.800781 15.683594 17.128906 15.898438 17.375 16.230469 C 17.441406 16.28125 17.503906 16.332031 17.5625 16.390625 C 17.613281 16.410156 17.660156 16.4375 17.699219 16.46875 Z M 17.699219 16.46875 "/>
</g>
<mask id="mask74">
  <g filter="url(#alpha)">
<rect x="0" y="0" width="32" height="31" style="fill:rgb(0%,0%,0%);fill-opacity:0.992157;stroke:none;"/>
  </g>
</mask>
<clipPath id="clip75">
  <rect x="0" y="0" width="32" height="31"/>
</clipPath>
<g id="surface227" clip-path="url(#clip75)">
<path style=" stroke:none;fill-rule:evenodd;fill:rgb(91.372549%,36.862745%,29.019608%);fill-opacity:1;" d="M 5.164062 16.46875 C 5.816406 16.46875 6.46875 16.46875 7.121094 16.46875 C 7.152344 16.503906 7.183594 16.539062 7.207031 16.578125 C 6.5625 16.578125 5.914062 16.578125 5.265625 16.578125 C 5.230469 16.542969 5.195312 16.507812 5.164062 16.46875 Z M 5.164062 16.46875 "/>
</g>
<mask id="mask75">
  <g filter="url(#alpha)">
<rect x="0" y="0" width="32" height="31" style="fill:rgb(0%,0%,0%);fill-opacity:0.988235;stroke:none;"/>
  </g>
</mask>
<clipPath id="clip76">
  <rect x="0" y="0" width="32" height="31"/>
</clipPath>
<g id="surface230" clip-path="url(#clip76)">
<path style=" stroke:none;fill-rule:evenodd;fill:rgb(91.372549%,36.862745%,29.019608%);fill-opacity:1;" d="M 10.859375 16.46875 C 11.632812 16.46875 12.40625 16.46875 13.175781 16.46875 C 13.28125 16.507812 13.386719 16.546875 13.488281 16.578125 C 12.644531 16.578125 11.800781 16.578125 10.960938 16.578125 C 10.921875 16.542969 10.890625 16.507812 10.859375 16.46875 Z M 10.859375 16.46875 "/>
</g>
<mask id="mask76">
  <g filter="url(#alpha)">
<rect x="0" y="0" width="32" height="31" style="fill:rgb(0%,0%,0%);fill-opacity:0.980392;stroke:none;"/>
  </g>
</mask>
<clipPath id="clip77">
  <rect x="0" y="0" width="32" height="31"/>
</clipPath>
<g id="surface233" clip-path="url(#clip77)">
<path style=" stroke:none;fill-rule:evenodd;fill:rgb(91.372549%,36.862745%,29.019608%);fill-opacity:1;" d="M 14.273438 16.46875 C 15.417969 16.46875 16.558594 16.46875 17.699219 16.46875 C 17.804688 16.511719 17.90625 16.550781 18.011719 16.578125 C 17.484375 16.578125 16.957031 16.578125 16.429688 16.578125 C 16.230469 16.511719 16.027344 16.492188 15.820312 16.523438 C 15.738281 16.539062 15.660156 16.558594 15.582031 16.578125 C 15.039062 16.578125 14.496094 16.578125 13.949219 16.578125 C 14.0625 16.550781 14.167969 16.515625 14.273438 16.46875 Z M 14.273438 16.46875 "/>
</g>
<mask id="mask77">
  <g filter="url(#alpha)">
<rect x="0" y="0" width="32" height="31" style="fill:rgb(0%,0%,0%);fill-opacity:0.988235;stroke:none;"/>
  </g>
</mask>
<clipPath id="clip78">
  <rect x="0" y="0" width="32" height="31"/>
</clipPath>
<g id="surface236" clip-path="url(#clip78)">
<path style=" stroke:none;fill-rule:evenodd;fill:rgb(91.372549%,36.862745%,29.019608%);fill-opacity:1;" d="M 18.785156 16.46875 C 19.535156 16.46875 20.289062 16.46875 21.039062 16.46875 C 21.015625 16.507812 20.988281 16.546875 20.953125 16.578125 C 20.125 16.578125 19.300781 16.578125 18.472656 16.578125 C 18.578125 16.550781 18.683594 16.511719 18.785156 16.46875 Z M 18.785156 16.46875 "/>
</g>
<mask id="mask78">
  <g filter="url(#alpha)">
<rect x="0" y="0" width="32" height="31" style="fill:rgb(0%,0%,0%);fill-opacity:0.992157;stroke:none;"/>
  </g>
</mask>
<clipPath id="clip79">
  <rect x="0" y="0" width="32" height="31"/>
</clipPath>
<g id="surface239" clip-path="url(#clip79)">
<path style=" stroke:none;fill-rule:evenodd;fill:rgb(91.372549%,36.862745%,29.019608%);fill-opacity:1;" d="M 24.667969 16.46875 C 25.273438 16.46875 25.878906 16.46875 26.484375 16.46875 C 26.460938 16.507812 26.429688 16.542969 26.398438 16.578125 C 25.792969 16.578125 25.1875 16.578125 24.578125 16.578125 C 24.605469 16.539062 24.632812 16.5 24.667969 16.46875 Z M 24.667969 16.46875 "/>
</g>
<mask id="mask79">
  <g filter="url(#alpha)">
<rect x="0" y="0" width="32" height="31" style="fill:rgb(0%,0%,0%);fill-opacity:0.992157;stroke:none;"/>
  </g>
</mask>
<clipPath id="clip80">
  <rect x="0" y="0" width="32" height="31"/>
</clipPath>
<g id="surface242" clip-path="url(#clip80)">
<path style=" stroke:none;fill-rule:evenodd;fill:rgb(91.764706%,37.647059%,28.627451%);fill-opacity:1;" d="M 5.265625 16.578125 C 5.914062 16.578125 6.5625 16.578125 7.207031 16.578125 C 7.527344 16.957031 7.835938 17.34375 8.144531 17.730469 C 7.492188 17.730469 6.839844 17.730469 6.1875 17.730469 C 5.875 17.351562 5.566406 16.964844 5.265625 16.578125 Z M 5.265625 16.578125 "/>
</g>
<mask id="mask80">
  <g filter="url(#alpha)">
<rect x="0" y="0" width="32" height="31" style="fill:rgb(0%,0%,0%);fill-opacity:0.996078;stroke:none;"/>
  </g>
</mask>
<clipPath id="clip81">
  <rect x="0" y="0" width="32" height="31"/>
</clipPath>
<g id="surface245" clip-path="url(#clip81)">
<path style=" stroke:none;fill-rule:evenodd;fill:rgb(91.764706%,37.647059%,28.627451%);fill-opacity:1;" d="M 10.960938 16.578125 C 11.800781 16.578125 12.644531 16.578125 13.488281 16.578125 C 13.566406 16.582031 13.644531 16.589844 13.71875 16.601562 C 13.796875 16.589844 13.871094 16.582031 13.949219 16.578125 C 14.496094 16.578125 15.039062 16.578125 15.582031 16.578125 C 15.085938 16.804688 14.832031 17.1875 14.824219 17.730469 C 13.847656 17.730469 12.871094 17.730469 11.894531 17.730469 C 11.574219 17.355469 11.261719 16.96875 10.960938 16.578125 Z M 10.960938 16.578125 "/>
</g>
<mask id="mask81">
  <g filter="url(#alpha)">
<rect x="0" y="0" width="32" height="31" style="fill:rgb(0%,0%,0%);fill-opacity:0.996078;stroke:none;"/>
  </g>
</mask>
<clipPath id="clip82">
  <rect x="0" y="0" width="32" height="31"/>
</clipPath>
<g id="surface248" clip-path="url(#clip82)">
<path style=" stroke:none;fill-rule:evenodd;fill:rgb(91.764706%,37.647059%,28.627451%);fill-opacity:1;" d="M 16.429688 16.578125 C 16.957031 16.578125 17.484375 16.578125 18.011719 16.578125 C 18.085938 16.582031 18.164062 16.59375 18.238281 16.601562 C 18.316406 16.59375 18.394531 16.585938 18.472656 16.578125 C 19.300781 16.578125 20.125 16.578125 20.953125 16.578125 C 20.65625 16.96875 20.351562 17.351562 20.042969 17.730469 C 19.09375 17.730469 18.140625 17.730469 17.191406 17.730469 C 17.1875 17.183594 16.933594 16.800781 16.429688 16.578125 Z M 16.429688 16.578125 "/>
</g>
<mask id="mask82">
  <g filter="url(#alpha)">
<rect x="0" y="0" width="32" height="31" style="fill:rgb(0%,0%,0%);fill-opacity:0.992157;stroke:none;"/>
  </g>
</mask>
<clipPath id="clip83">
  <rect x="0" y="0" width="32" height="31"/>
</clipPath>
<g id="surface251" clip-path="url(#clip83)">
<path style=" stroke:none;fill-rule:evenodd;fill:rgb(91.764706%,37.647059%,28.627451%);fill-opacity:1;" d="M 24.578125 16.578125 C 25.1875 16.578125 25.792969 16.578125 26.398438 16.578125 C 26.101562 16.96875 25.796875 17.351562 25.488281 17.730469 C 24.875 17.730469 24.257812 17.730469 23.644531 17.730469 C 23.949219 17.34375 24.261719 16.957031 24.578125 16.578125 Z M 24.578125 16.578125 "/>
</g>
<mask id="mask83">
  <g filter="url(#alpha)">
<rect x="0" y="0" width="32" height="31" style="fill:rgb(0%,0%,0%);fill-opacity:0.992157;stroke:none;"/>
  </g>
</mask>
<clipPath id="clip84">
  <rect x="0" y="0" width="32" height="31"/>
</clipPath>
<g id="surface254" clip-path="url(#clip84)">
<path style=" stroke:none;fill-rule:evenodd;fill:rgb(92.156863%,40.392157%,27.45098%);fill-opacity:1;" d="M 6.1875 17.730469 C 6.839844 17.730469 7.492188 17.730469 8.144531 17.730469 C 8.582031 18.261719 9.019531 18.796875 9.453125 19.335938 C 8.796875 19.335938 8.140625 19.335938 7.484375 19.335938 C 7.042969 18.808594 6.609375 18.273438 6.1875 17.730469 Z M 6.1875 17.730469 "/>
</g>
<mask id="mask84">
  <g filter="url(#alpha)">
<rect x="0" y="0" width="32" height="31" style="fill:rgb(0%,0%,0%);fill-opacity:0.996078;stroke:none;"/>
  </g>
</mask>
<clipPath id="clip85">
  <rect x="0" y="0" width="32" height="31"/>
</clipPath>
<g id="surface257" clip-path="url(#clip85)">
<path style=" stroke:none;fill-rule:evenodd;fill:rgb(92.156863%,40.392157%,27.45098%);fill-opacity:1;" d="M 11.894531 17.730469 C 12.871094 17.730469 13.847656 17.730469 14.824219 17.730469 C 14.878906 18.226562 15.140625 18.574219 15.609375 18.765625 C 16.140625 18.921875 16.585938 18.792969 16.945312 18.378906 C 17.09375 18.1875 17.175781 17.972656 17.191406 17.730469 C 18.140625 17.730469 19.09375 17.730469 20.042969 17.730469 C 19.621094 18.269531 19.199219 18.804688 18.773438 19.335938 C 16.914062 19.335938 15.058594 19.335938 13.203125 19.335938 C 12.761719 18.804688 12.324219 18.269531 11.894531 17.730469 Z M 11.894531 17.730469 "/>
</g>
<mask id="mask85">
  <g filter="url(#alpha)">
<rect x="0" y="0" width="32" height="31" style="fill:rgb(0%,0%,0%);fill-opacity:0.992157;stroke:none;"/>
  </g>
</mask>
<clipPath id="clip86">
  <rect x="0" y="0" width="32" height="31"/>
</clipPath>
<g id="surface260" clip-path="url(#clip86)">
<path style=" stroke:none;fill-rule:evenodd;fill:rgb(92.156863%,40.392157%,27.45098%);fill-opacity:1;" d="M 23.644531 17.730469 C 24.257812 17.730469 24.875 17.730469 25.488281 17.730469 C 25.082031 18.273438 24.667969 18.808594 24.242188 19.335938 C 23.609375 19.335938 22.972656 19.335938 22.335938 19.335938 C 22.769531 18.796875 23.203125 18.261719 23.644531 17.730469 Z M 23.644531 17.730469 "/>
</g>
<mask id="mask86">
  <g filter="url(#alpha)">
<rect x="0" y="0" width="32" height="31" style="fill:rgb(0%,0%,0%);fill-opacity:0.992157;stroke:none;"/>
  </g>
</mask>
<clipPath id="clip87">
  <rect x="0" y="0" width="32" height="31"/>
</clipPath>
<g id="surface263" clip-path="url(#clip87)">
<path style=" stroke:none;fill-rule:evenodd;fill:rgb(92.941176%,41.960784%,27.058824%);fill-opacity:1;" d="M 7.484375 19.335938 C 8.140625 19.335938 8.796875 19.335938 9.453125 19.335938 C 9.554688 19.445312 9.648438 19.558594 9.738281 19.679688 C 9.078125 19.679688 8.417969 19.679688 7.757812 19.679688 C 7.660156 19.570312 7.566406 19.457031 7.484375 19.335938 Z M 7.484375 19.335938 "/>
</g>
<mask id="mask87">
  <g filter="url(#alpha)">
<rect x="0" y="0" width="32" height="31" style="fill:rgb(0%,0%,0%);fill-opacity:0.996078;stroke:none;"/>
  </g>
</mask>
<clipPath id="clip88">
  <rect x="0" y="0" width="32" height="31"/>
</clipPath>
<g id="surface266" clip-path="url(#clip88)">
<path style=" stroke:none;fill-rule:evenodd;fill:rgb(92.941176%,41.960784%,27.058824%);fill-opacity:1;" d="M 13.203125 19.335938 C 15.058594 19.335938 16.914062 19.335938 18.773438 19.335938 C 18.6875 19.453125 18.59375 19.570312 18.5 19.679688 C 16.824219 19.679688 15.152344 19.679688 13.476562 19.679688 C 13.382812 19.570312 13.289062 19.453125 13.203125 19.335938 Z M 13.203125 19.335938 "/>
</g>
<mask id="mask88">
  <g filter="url(#alpha)">
<rect x="0" y="0" width="32" height="31" style="fill:rgb(0%,0%,0%);fill-opacity:0.992157;stroke:none;"/>
  </g>
</mask>
<clipPath id="clip89">
  <rect x="0" y="0" width="32" height="31"/>
</clipPath>
<g id="surface269" clip-path="url(#clip89)">
<path style=" stroke:none;fill-rule:evenodd;fill:rgb(92.941176%,41.960784%,27.058824%);fill-opacity:1;" d="M 22.335938 19.335938 C 22.972656 19.335938 23.609375 19.335938 24.242188 19.335938 C 24.15625 19.453125 24.066406 19.570312 23.96875 19.679688 C 23.332031 19.679688 22.699219 19.679688 22.0625 19.679688 C 22.148438 19.5625 22.242188 19.449219 22.335938 19.335938 Z M 22.335938 19.335938 "/>
</g>
<mask id="mask89">
  <g filter="url(#alpha)">
<rect x="0" y="0" width="32" height="31" style="fill:rgb(0%,0%,0%);fill-opacity:0.992157;stroke:none;"/>
  </g>
</mask>
<clipPath id="clip90">
  <rect x="0" y="0" width="32" height="31"/>
</clipPath>
<g id="surface272" clip-path="url(#clip90)">
<path style=" stroke:none;fill-rule:evenodd;fill:rgb(92.941176%,42.745098%,26.666667%);fill-opacity:1;" d="M 7.757812 19.679688 C 8.417969 19.679688 9.078125 19.679688 9.738281 19.679688 C 9.867188 19.832031 9.992188 19.988281 10.113281 20.144531 C 9.453125 20.144531 8.792969 20.144531 8.128906 20.144531 C 8 19.996094 7.878906 19.839844 7.757812 19.679688 Z M 7.757812 19.679688 "/>
</g>
<mask id="mask90">
  <g filter="url(#alpha)">
<rect x="0" y="0" width="32" height="31" style="fill:rgb(0%,0%,0%);fill-opacity:0.996078;stroke:none;"/>
  </g>
</mask>
<clipPath id="clip91">
  <rect x="0" y="0" width="32" height="31"/>
</clipPath>
<g id="surface275" clip-path="url(#clip91)">
<path style=" stroke:none;fill-rule:evenodd;fill:rgb(92.941176%,42.352941%,26.666667%);fill-opacity:1;" d="M 13.476562 19.679688 C 15.152344 19.679688 16.824219 19.679688 18.5 19.679688 C 18.382812 19.839844 18.261719 19.996094 18.136719 20.144531 C 16.710938 20.144531 15.289062 20.144531 13.863281 20.144531 C 13.726562 19.996094 13.601562 19.839844 13.476562 19.679688 Z M 13.476562 19.679688 "/>
</g>
<mask id="mask91">
  <g filter="url(#alpha)">
<rect x="0" y="0" width="32" height="31" style="fill:rgb(0%,0%,0%);fill-opacity:0.992157;stroke:none;"/>
  </g>
</mask>
<clipPath id="clip92">
  <rect x="0" y="0" width="32" height="31"/>
</clipPath>
<g id="surface278" clip-path="url(#clip92)">
<path style=" stroke:none;fill-rule:evenodd;fill:rgb(92.941176%,42.745098%,26.666667%);fill-opacity:1;" d="M 22.0625 19.679688 C 22.699219 19.679688 23.332031 19.679688 23.96875 19.679688 C 23.855469 19.839844 23.734375 19.996094 23.609375 20.144531 C 22.964844 20.144531 22.320312 20.144531 21.675781 20.144531 C 21.800781 19.984375 21.925781 19.832031 22.0625 19.679688 Z M 22.0625 19.679688 "/>
</g>
<mask id="mask92">
  <g filter="url(#alpha)">
<rect x="0" y="0" width="32" height="31" style="fill:rgb(0%,0%,0%);fill-opacity:0.992157;stroke:none;"/>
  </g>
</mask>
<clipPath id="clip93">
  <rect x="0" y="0" width="32" height="31"/>
</clipPath>
<g id="surface281" clip-path="url(#clip93)">
<path style=" stroke:none;fill-rule:evenodd;fill:rgb(93.333333%,43.529412%,26.27451%);fill-opacity:1;" d="M 8.128906 20.144531 C 8.792969 20.144531 9.453125 20.144531 10.113281 20.144531 C 10.273438 20.328125 10.425781 20.515625 10.574219 20.710938 C 9.910156 20.710938 9.242188 20.710938 8.578125 20.710938 C 8.425781 20.527344 8.277344 20.335938 8.128906 20.144531 Z M 8.128906 20.144531 "/>
</g>
<mask id="mask93">
  <g filter="url(#alpha)">
<rect x="0" y="0" width="32" height="31" style="fill:rgb(0%,0%,0%);fill-opacity:0.996078;stroke:none;"/>
  </g>
</mask>
<clipPath id="clip94">
  <rect x="0" y="0" width="32" height="31"/>
</clipPath>
<g id="surface284" clip-path="url(#clip94)">
<path style=" stroke:none;fill-rule:evenodd;fill:rgb(93.333333%,43.529412%,26.27451%);fill-opacity:1;" d="M 13.863281 20.144531 C 15.289062 20.144531 16.710938 20.144531 18.136719 20.144531 C 17.992188 20.335938 17.84375 20.527344 17.6875 20.710938 C 16.5625 20.710938 15.4375 20.710938 14.3125 20.710938 C 14.15625 20.523438 14.007812 20.335938 13.863281 20.144531 Z M 13.863281 20.144531 "/>
</g>
<mask id="mask94">
  <g filter="url(#alpha)">
<rect x="0" y="0" width="32" height="31" style="fill:rgb(0%,0%,0%);fill-opacity:0.992157;stroke:none;"/>
  </g>
</mask>
<clipPath id="clip95">
  <rect x="0" y="0" width="32" height="31"/>
</clipPath>
<g id="surface287" clip-path="url(#clip95)">
<path style=" stroke:none;fill-rule:evenodd;fill:rgb(93.333333%,43.529412%,26.27451%);fill-opacity:1;" d="M 21.675781 20.144531 C 22.320312 20.144531 22.964844 20.144531 23.609375 20.144531 C 23.460938 20.335938 23.316406 20.523438 23.171875 20.710938 C 22.519531 20.710938 21.867188 20.710938 21.214844 20.710938 C 21.367188 20.519531 21.523438 20.332031 21.675781 20.144531 Z M 21.675781 20.144531 "/>
</g>
<mask id="mask95">
  <g filter="url(#alpha)">
<rect x="0" y="0" width="32" height="31" style="fill:rgb(0%,0%,0%);fill-opacity:0.992157;stroke:none;"/>
  </g>
</mask>
<clipPath id="clip96">
  <rect x="0" y="0" width="32" height="31"/>
</clipPath>
<g id="surface290" clip-path="url(#clip96)">
<path style=" stroke:none;fill-rule:evenodd;fill:rgb(93.333333%,45.098039%,25.490196%);fill-opacity:1;" d="M 8.578125 20.710938 C 9.242188 20.710938 9.910156 20.710938 10.574219 20.710938 C 10.957031 21.167969 11.332031 21.628906 11.707031 22.09375 C 11.039062 22.09375 10.371094 22.09375 9.699219 22.09375 C 9.324219 21.636719 8.949219 21.175781 8.578125 20.710938 Z M 8.578125 20.710938 "/>
</g>
<mask id="mask96">
  <g filter="url(#alpha)">
<rect x="0" y="0" width="32" height="31" style="fill:rgb(0%,0%,0%);fill-opacity:0.992157;stroke:none;"/>
  </g>
</mask>
<clipPath id="clip97">
  <rect x="0" y="0" width="32" height="31"/>
</clipPath>
<g id="surface293" clip-path="url(#clip97)">
<path style=" stroke:none;fill-rule:evenodd;fill:rgb(93.333333%,45.098039%,25.490196%);fill-opacity:1;" d="M 14.3125 20.710938 C 15.4375 20.710938 16.5625 20.710938 17.6875 20.710938 C 17.445312 21.015625 17.203125 21.324219 16.964844 21.636719 C 17.082031 21.792969 17.203125 21.945312 17.328125 22.09375 C 16.699219 22.09375 16.074219 22.09375 15.445312 22.09375 C 15.0625 21.636719 14.683594 21.175781 14.3125 20.710938 Z M 14.3125 20.710938 "/>
</g>
<mask id="mask97">
  <g filter="url(#alpha)">
<rect x="0" y="0" width="32" height="31" style="fill:rgb(0%,0%,0%);fill-opacity:0.992157;stroke:none;"/>
  </g>
</mask>
<clipPath id="clip98">
  <rect x="0" y="0" width="32" height="31"/>
</clipPath>
<g id="surface296" clip-path="url(#clip98)">
<path style=" stroke:none;fill-rule:evenodd;fill:rgb(93.333333%,45.098039%,25.490196%);fill-opacity:1;" d="M 21.214844 20.710938 C 21.867188 20.710938 22.519531 20.710938 23.171875 20.710938 C 22.8125 21.175781 22.453125 21.636719 22.085938 22.09375 C 21.421875 22.09375 20.757812 22.09375 20.09375 22.09375 C 20.46875 21.632812 20.839844 21.171875 21.214844 20.710938 Z M 21.214844 20.710938 "/>
</g>
<mask id="mask98">
  <g filter="url(#alpha)">
<rect x="0" y="0" width="32" height="31" style="fill:rgb(0%,0%,0%);fill-opacity:0.992157;stroke:none;"/>
  </g>
</mask>
<clipPath id="clip99">
  <rect x="0" y="0" width="32" height="31"/>
</clipPath>
<g id="surface299" clip-path="url(#clip99)">
<path style=" stroke:none;fill-rule:evenodd;fill:rgb(93.72549%,47.058824%,24.705882%);fill-opacity:1;" d="M 9.699219 22.09375 C 10.371094 22.09375 11.039062 22.09375 11.707031 22.09375 C 11.957031 22.402344 12.207031 22.707031 12.453125 23.015625 C 11.78125 23.015625 11.109375 23.015625 10.4375 23.015625 C 10.1875 22.710938 9.941406 22.40625 9.699219 22.09375 Z M 9.699219 22.09375 "/>
</g>
<mask id="mask99">
  <g filter="url(#alpha)">
<rect x="0" y="0" width="32" height="31" style="fill:rgb(0%,0%,0%);fill-opacity:0.992157;stroke:none;"/>
  </g>
</mask>
<clipPath id="clip100">
  <rect x="0" y="0" width="32" height="31"/>
</clipPath>
<g id="surface302" clip-path="url(#clip100)">
<path style=" stroke:none;fill-rule:evenodd;fill:rgb(93.72549%,47.058824%,24.705882%);fill-opacity:1;" d="M 15.445312 22.09375 C 16.074219 22.09375 16.699219 22.09375 17.328125 22.09375 C 17.585938 22.398438 17.839844 22.703125 18.085938 23.015625 C 17.457031 23.015625 16.824219 23.015625 16.191406 23.015625 C 15.933594 22.714844 15.6875 22.410156 15.445312 22.09375 Z M 15.445312 22.09375 "/>
</g>
<mask id="mask100">
  <g filter="url(#alpha)">
<rect x="0" y="0" width="32" height="31" style="fill:rgb(0%,0%,0%);fill-opacity:0.992157;stroke:none;"/>
  </g>
</mask>
<clipPath id="clip101">
  <rect x="0" y="0" width="32" height="31"/>
</clipPath>
<g id="surface305" clip-path="url(#clip101)">
<path style=" stroke:none;fill-rule:evenodd;fill:rgb(93.72549%,47.058824%,24.705882%);fill-opacity:1;" d="M 20.09375 22.09375 C 20.757812 22.09375 21.421875 22.09375 22.085938 22.09375 C 21.847656 22.402344 21.609375 22.710938 21.363281 23.015625 C 20.691406 23.015625 20.019531 23.015625 19.347656 23.015625 C 19.59375 22.703125 19.839844 22.398438 20.09375 22.09375 Z M 20.09375 22.09375 "/>
</g>
<mask id="mask101">
  <g filter="url(#alpha)">
<rect x="0" y="0" width="32" height="31" style="fill:rgb(0%,0%,0%);fill-opacity:0.992157;stroke:none;"/>
  </g>
</mask>
<clipPath id="clip102">
  <rect x="0" y="0" width="32" height="31"/>
</clipPath>
<g id="surface308" clip-path="url(#clip102)">
<path style=" stroke:none;fill-rule:evenodd;fill:rgb(94.117647%,48.235294%,24.313725%);fill-opacity:1;" d="M 10.4375 23.015625 C 11.109375 23.015625 11.78125 23.015625 12.453125 23.015625 C 12.613281 23.207031 12.769531 23.398438 12.929688 23.589844 C 12.25 23.589844 11.574219 23.589844 10.898438 23.589844 C 10.738281 23.402344 10.585938 23.210938 10.4375 23.015625 Z M 10.4375 23.015625 "/>
</g>
<mask id="mask102">
  <g filter="url(#alpha)">
<rect x="0" y="0" width="32" height="31" style="fill:rgb(0%,0%,0%);fill-opacity:0.992157;stroke:none;"/>
  </g>
</mask>
<clipPath id="clip103">
  <rect x="0" y="0" width="32" height="31"/>
</clipPath>
<g id="surface311" clip-path="url(#clip103)">
<path style=" stroke:none;fill-rule:evenodd;fill:rgb(94.117647%,48.235294%,24.313725%);fill-opacity:1;" d="M 16.191406 23.015625 C 16.824219 23.015625 17.457031 23.015625 18.085938 23.015625 C 18.246094 23.203125 18.40625 23.394531 18.5625 23.589844 C 17.929688 23.589844 17.296875 23.589844 16.667969 23.589844 C 16.5 23.40625 16.34375 23.214844 16.191406 23.015625 Z M 16.191406 23.015625 "/>
</g>
<mask id="mask103">
  <g filter="url(#alpha)">
<rect x="0" y="0" width="32" height="31" style="fill:rgb(0%,0%,0%);fill-opacity:0.992157;stroke:none;"/>
  </g>
</mask>
<clipPath id="clip104">
  <rect x="0" y="0" width="32" height="31"/>
</clipPath>
<g id="surface314" clip-path="url(#clip104)">
<path style=" stroke:none;fill-rule:evenodd;fill:rgb(94.117647%,48.235294%,24.313725%);fill-opacity:1;" d="M 19.347656 23.015625 C 20.019531 23.015625 20.691406 23.015625 21.363281 23.015625 C 21.222656 23.210938 21.074219 23.40625 20.914062 23.589844 C 20.234375 23.589844 19.554688 23.589844 18.871094 23.589844 C 19.03125 23.398438 19.1875 23.207031 19.347656 23.015625 Z M 19.347656 23.015625 "/>
</g>
<mask id="mask104">
  <g filter="url(#alpha)">
<rect x="0" y="0" width="32" height="31" style="fill:rgb(0%,0%,0%);fill-opacity:0.992157;stroke:none;"/>
  </g>
</mask>
<clipPath id="clip105">
  <rect x="0" y="0" width="32" height="31"/>
</clipPath>
<g id="surface317" clip-path="url(#clip105)">
<path style=" stroke:none;fill-rule:evenodd;fill:rgb(94.509804%,50.196078%,23.529412%);fill-opacity:1;" d="M 10.898438 23.589844 C 11.574219 23.589844 12.25 23.589844 12.929688 23.589844 C 13.398438 24.160156 13.863281 24.730469 14.324219 25.304688 C 13.644531 25.304688 12.960938 25.304688 12.28125 25.304688 C 11.820312 24.734375 11.359375 24.164062 10.898438 23.589844 Z M 10.898438 23.589844 "/>
</g>
<mask id="mask105">
  <g filter="url(#alpha)">
<rect x="0" y="0" width="32" height="31" style="fill:rgb(0%,0%,0%);fill-opacity:0.992157;stroke:none;"/>
  </g>
</mask>
<clipPath id="clip106">
  <rect x="0" y="0" width="32" height="31"/>
</clipPath>
<g id="surface320" clip-path="url(#clip106)">
<path style=" stroke:none;fill-rule:evenodd;fill:rgb(94.509804%,49.803922%,23.529412%);fill-opacity:1;" d="M 16.667969 23.589844 C 17.296875 23.589844 17.929688 23.589844 18.5625 23.589844 C 18.617188 23.644531 18.671875 23.707031 18.714844 23.773438 C 18.769531 23.714844 18.824219 23.652344 18.871094 23.589844 C 19.554688 23.589844 20.234375 23.589844 20.914062 23.589844 C 20.472656 24.164062 20.027344 24.734375 19.582031 25.304688 C 19.074219 25.304688 18.570312 25.304688 18.0625 25.304688 C 17.589844 24.738281 17.125 24.167969 16.667969 23.589844 Z M 16.667969 23.589844 "/>
</g>
<mask id="mask106">
  <g filter="url(#alpha)">
<rect x="0" y="0" width="32" height="31" style="fill:rgb(0%,0%,0%);fill-opacity:0.992157;stroke:none;"/>
  </g>
</mask>
<clipPath id="clip107">
  <rect x="0" y="0" width="32" height="31"/>
</clipPath>
<g id="surface323" clip-path="url(#clip107)">
<path style=" stroke:none;fill-rule:evenodd;fill:rgb(94.901961%,52.54902%,22.352941%);fill-opacity:1;" d="M 12.28125 25.304688 C 12.960938 25.304688 13.644531 25.304688 14.324219 25.304688 C 14.671875 25.71875 15.015625 26.140625 15.347656 26.570312 C 14.664062 26.570312 13.984375 26.570312 13.300781 26.570312 C 12.953125 26.15625 12.613281 25.734375 12.28125 25.304688 Z M 12.28125 25.304688 "/>
</g>
<mask id="mask107">
  <g filter="url(#alpha)">
<rect x="0" y="0" width="32" height="31" style="fill:rgb(0%,0%,0%);fill-opacity:0.976471;stroke:none;"/>
  </g>
</mask>
<clipPath id="clip108">
  <rect x="0" y="0" width="32" height="31"/>
</clipPath>
<g id="surface326" clip-path="url(#clip108)">
<path style=" stroke:none;fill-rule:evenodd;fill:rgb(94.901961%,51.764706%,22.745098%);fill-opacity:1;" d="M 18.0625 25.304688 C 18.570312 25.304688 19.074219 25.304688 19.582031 25.304688 C 19.335938 25.625 19.082031 25.945312 18.828125 26.261719 C 18.570312 25.945312 18.316406 25.625 18.0625 25.304688 Z M 18.0625 25.304688 "/>
</g>
<mask id="mask108">
  <g filter="url(#alpha)">
<rect x="0" y="0" width="32" height="31" style="fill:rgb(0%,0%,0%);fill-opacity:0.992157;stroke:none;"/>
  </g>
</mask>
<clipPath id="clip109">
  <rect x="0" y="0" width="32" height="31"/>
</clipPath>
<g id="surface329" clip-path="url(#clip109)">
<path style=" stroke:none;fill-rule:evenodd;fill:rgb(95.294118%,53.72549%,21.568627%);fill-opacity:1;" d="M 13.300781 26.570312 C 13.984375 26.570312 14.664062 26.570312 15.347656 26.570312 C 15.414062 26.644531 15.480469 26.722656 15.546875 26.800781 C 14.859375 26.800781 14.175781 26.800781 13.488281 26.800781 C 13.417969 26.730469 13.355469 26.652344 13.300781 26.570312 Z M 13.300781 26.570312 "/>
</g>
<mask id="mask109">
  <g filter="url(#alpha)">
<rect x="0" y="0" width="32" height="31" style="fill:rgb(0%,0%,0%);fill-opacity:0.992157;stroke:none;"/>
  </g>
</mask>
<clipPath id="clip110">
  <rect x="0" y="0" width="32" height="31"/>
</clipPath>
<g id="surface332" clip-path="url(#clip110)">
<path style=" stroke:none;fill-rule:evenodd;fill:rgb(95.686275%,54.901961%,21.176471%);fill-opacity:1;" d="M 13.488281 26.800781 C 14.175781 26.800781 14.859375 26.800781 15.546875 26.800781 C 15.722656 27.019531 15.902344 27.238281 16.082031 27.457031 C 16.640625 27.523438 17.078125 27.785156 17.394531 28.234375 C 17.429688 28.292969 17.460938 28.347656 17.488281 28.40625 C 17.121094 28.40625 16.75 28.40625 16.378906 28.40625 C 16.007812 28.210938 15.632812 28.210938 15.257812 28.40625 C 14.890625 28.40625 14.519531 28.40625 14.148438 28.40625 C 14.222656 28.25 14.316406 28.109375 14.4375 27.984375 C 14.117188 27.59375 13.800781 27.199219 13.488281 26.800781 Z M 13.488281 26.800781 "/>
</g>
<mask id="mask110">
  <g filter="url(#alpha)">
<rect x="0" y="0" width="32" height="31" style="fill:rgb(0%,0%,0%);fill-opacity:0.984314;stroke:none;"/>
  </g>
</mask>
<clipPath id="clip111">
  <rect x="0" y="0" width="32" height="31"/>
</clipPath>
<g id="surface335" clip-path="url(#clip111)">
<path style=" stroke:none;fill-rule:evenodd;fill:rgb(96.078431%,57.254902%,20.392157%);fill-opacity:1;" d="M 14.148438 28.40625 C 14.519531 28.40625 14.890625 28.40625 15.257812 28.40625 C 14.914062 28.652344 14.777344 28.984375 14.855469 29.398438 C 14.917969 29.710938 15.097656 29.929688 15.394531 30.054688 C 15.496094 30.089844 15.59375 30.117188 15.695312 30.136719 C 15.203125 30.136719 14.714844 30.136719 14.222656 30.136719 C 14.015625 29.746094 13.941406 29.335938 14.007812 28.898438 C 14.027344 28.726562 14.074219 28.5625 14.148438 28.40625 Z M 14.148438 28.40625 "/>
</g>
<mask id="mask111">
  <g filter="url(#alpha)">
<rect x="0" y="0" width="32" height="31" style="fill:rgb(0%,0%,0%);fill-opacity:0.984314;stroke:none;"/>
  </g>
</mask>
<clipPath id="clip112">
  <rect x="0" y="0" width="32" height="31"/>
</clipPath>
<g id="surface338" clip-path="url(#clip112)">
<path style=" stroke:none;fill-rule:evenodd;fill:rgb(96.078431%,57.254902%,20.392157%);fill-opacity:1;" d="M 16.378906 28.40625 C 16.75 28.40625 17.121094 28.40625 17.488281 28.40625 C 17.703125 28.929688 17.703125 29.453125 17.496094 29.976562 C 17.46875 30.035156 17.4375 30.085938 17.402344 30.136719 C 16.914062 30.136719 16.429688 30.136719 15.945312 30.136719 C 16.484375 30.050781 16.773438 29.738281 16.804688 29.199219 C 16.800781 28.859375 16.660156 28.597656 16.378906 28.40625 Z M 16.378906 28.40625 "/>
</g>
<mask id="mask112">
  <g filter="url(#alpha)">
<rect x="0" y="0" width="32" height="31" style="fill:rgb(0%,0%,0%);fill-opacity:0.988235;stroke:none;"/>
  </g>
</mask>
<clipPath id="clip113">
  <rect x="0" y="0" width="32" height="31"/>
</clipPath>
<g id="surface341" clip-path="url(#clip113)">
<path style=" stroke:none;fill-rule:evenodd;fill:rgb(96.470588%,58.823529%,19.607843%);fill-opacity:1;" d="M 14.222656 30.136719 C 14.714844 30.136719 15.203125 30.136719 15.695312 30.136719 C 15.777344 30.136719 15.859375 30.136719 15.945312 30.136719 C 16.429688 30.136719 16.914062 30.136719 17.402344 30.136719 C 17.175781 30.5 16.855469 30.742188 16.4375 30.859375 C 15.816406 31.035156 15.230469 30.953125 14.683594 30.621094 C 14.496094 30.492188 14.339844 30.332031 14.222656 30.136719 Z M 14.222656 30.136719 "/>
</g>
</defs>
<g id="surface1">
<use xlink:href="#surface5" mask="url(#mask0)"/>
<use xlink:href="#surface8" mask="url(#mask1)"/>
<path style=" stroke:none;fill-rule:evenodd;fill:rgb(85.490196%,9.803922%,40.392157%);fill-opacity:1;" d="M 8.566406 1.757812 C 13.085938 1.757812 17.605469 1.757812 22.125 1.757812 C 22.113281 1.875 22.121094 1.988281 22.148438 2.101562 C 17.613281 2.101562 13.078125 2.101562 8.542969 2.101562 C 8.5625 1.988281 8.570312 1.875 8.566406 1.757812 Z M 8.566406 1.757812 "/>
<use xlink:href="#surface11" mask="url(#mask2)"/>
<use xlink:href="#surface14" mask="url(#mask3)"/>
<use xlink:href="#surface17" mask="url(#mask4)"/>
<use xlink:href="#surface20" mask="url(#mask5)"/>
<use xlink:href="#surface23" mask="url(#mask6)"/>
<use xlink:href="#surface26" mask="url(#mask7)"/>
<path style=" stroke:none;fill-rule:evenodd;fill:rgb(87.058824%,16.470588%,37.647059%);fill-opacity:1;" d="M 21.75 5.667969 C 16.019531 5.667969 10.285156 5.667969 4.554688 5.667969 C 4.632812 5.574219 4.707031 5.480469 4.777344 5.382812 C 7.570312 5.378906 10.367188 5.378906 13.160156 5.375 C 15.953125 5.378906 18.746094 5.378906 21.539062 5.382812 C 21.613281 5.476562 21.683594 5.570312 21.75 5.667969 Z M 21.75 5.667969 "/>
<path style=" stroke:none;fill-rule:evenodd;fill:rgb(87.45098%,18.039216%,36.862745%);fill-opacity:1;" d="M 4.554688 5.667969 C 10.285156 5.667969 16.019531 5.667969 21.75 5.667969 C 22.050781 6.042969 22.339844 6.421875 22.625 6.808594 C 16.300781 6.808594 9.980469 6.808594 3.65625 6.808594 C 3.957031 6.429688 4.253906 6.050781 4.554688 5.667969 Z M 4.554688 5.667969 "/>
<use xlink:href="#surface29" mask="url(#mask8)"/>
<path style=" stroke:none;fill-rule:evenodd;fill:rgb(87.45098%,19.215686%,36.078431%);fill-opacity:1;" d="M 3.65625 6.808594 C 9.980469 6.808594 16.300781 6.808594 22.625 6.808594 C 22.660156 6.847656 22.695312 6.886719 22.722656 6.933594 C 16.339844 6.933594 9.953125 6.933594 3.570312 6.933594 C 3.59375 6.886719 3.621094 6.847656 3.65625 6.808594 Z M 3.65625 6.808594 "/>
<use xlink:href="#surface32" mask="url(#mask9)"/>
<use xlink:href="#surface35" mask="url(#mask10)"/>
<use xlink:href="#surface38" mask="url(#mask11)"/>
<use xlink:href="#surface41" mask="url(#mask12)"/>
<use xlink:href="#surface44" mask="url(#mask13)"/>
<use xlink:href="#surface47" mask="url(#mask14)"/>
<use xlink:href="#surface50" mask="url(#mask15)"/>
<use xlink:href="#surface53" mask="url(#mask16)"/>
<use xlink:href="#surface56" mask="url(#mask17)"/>
<use xlink:href="#surface59" mask="url(#mask18)"/>
<use xlink:href="#surface62" mask="url(#mask19)"/>
<use xlink:href="#surface65" mask="url(#mask20)"/>
<use xlink:href="#surface68" mask="url(#mask21)"/>
<use xlink:href="#surface71" mask="url(#mask22)"/>
<use xlink:href="#surface74" mask="url(#mask23)"/>
<use xlink:href="#surface77" mask="url(#mask24)"/>
<use xlink:href="#surface80" mask="url(#mask25)"/>
<use xlink:href="#surface83" mask="url(#mask26)"/>
<use xlink:href="#surface86" mask="url(#mask27)"/>
<use xlink:href="#surface89" mask="url(#mask28)"/>
<use xlink:href="#surface92" mask="url(#mask29)"/>
<use xlink:href="#surface95" mask="url(#mask30)"/>
<use xlink:href="#surface98" mask="url(#mask31)"/>
<use xlink:href="#surface101" mask="url(#mask32)"/>
<use xlink:href="#surface104" mask="url(#mask33)"/>
<use xlink:href="#surface107" mask="url(#mask34)"/>
<use xlink:href="#surface110" mask="url(#mask35)"/>
<use xlink:href="#surface113" mask="url(#mask36)"/>
<use xlink:href="#surface116" mask="url(#mask37)"/>
<use xlink:href="#surface119" mask="url(#mask38)"/>
<use xlink:href="#surface122" mask="url(#mask39)"/>
<use xlink:href="#surface125" mask="url(#mask40)"/>
<use xlink:href="#surface128" mask="url(#mask41)"/>
<use xlink:href="#surface131" mask="url(#mask42)"/>
<use xlink:href="#surface134" mask="url(#mask43)"/>
<use xlink:href="#surface137" mask="url(#mask44)"/>
<use xlink:href="#surface140" mask="url(#mask45)"/>
<use xlink:href="#surface143" mask="url(#mask46)"/>
<use xlink:href="#surface146" mask="url(#mask47)"/>
<use xlink:href="#surface149" mask="url(#mask48)"/>
<use xlink:href="#surface152" mask="url(#mask49)"/>
<use xlink:href="#surface155" mask="url(#mask50)"/>
<use xlink:href="#surface158" mask="url(#mask51)"/>
<use xlink:href="#surface161" mask="url(#mask52)"/>
<use xlink:href="#surface164" mask="url(#mask53)"/>
<use xlink:href="#surface167" mask="url(#mask54)"/>
<use xlink:href="#surface170" mask="url(#mask55)"/>
<use xlink:href="#surface173" mask="url(#mask56)"/>
<use xlink:href="#surface176" mask="url(#mask57)"/>
<use xlink:href="#surface179" mask="url(#mask58)"/>
<use xlink:href="#surface182" mask="url(#mask59)"/>
<use xlink:href="#surface185" mask="url(#mask60)"/>
<use xlink:href="#surface188" mask="url(#mask61)"/>
<use xlink:href="#surface191" mask="url(#mask62)"/>
<use xlink:href="#surface194" mask="url(#mask63)"/>
<use xlink:href="#surface197" mask="url(#mask64)"/>
<use xlink:href="#surface200" mask="url(#mask65)"/>
<use xlink:href="#surface203" mask="url(#mask66)"/>
<use xlink:href="#surface206" mask="url(#mask67)"/>
<use xlink:href="#surface209" mask="url(#mask68)"/>
<use xlink:href="#surface212" mask="url(#mask69)"/>
<use xlink:href="#surface215" mask="url(#mask70)"/>
<use xlink:href="#surface218" mask="url(#mask71)"/>
<use xlink:href="#surface221" mask="url(#mask72)"/>
<use xlink:href="#surface224" mask="url(#mask73)"/>
<use xlink:href="#surface227" mask="url(#mask74)"/>
<use xlink:href="#surface230" mask="url(#mask75)"/>
<use xlink:href="#surface233" mask="url(#mask76)"/>
<use xlink:href="#surface236" mask="url(#mask77)"/>
<use xlink:href="#surface239" mask="url(#mask78)"/>
<use xlink:href="#surface242" mask="url(#mask79)"/>
<use xlink:href="#surface245" mask="url(#mask80)"/>
<use xlink:href="#surface248" mask="url(#mask81)"/>
<use xlink:href="#surface251" mask="url(#mask82)"/>
<use xlink:href="#surface254" mask="url(#mask83)"/>
<use xlink:href="#surface257" mask="url(#mask84)"/>
<use xlink:href="#surface260" mask="url(#mask85)"/>
<use xlink:href="#surface263" mask="url(#mask86)"/>
<use xlink:href="#surface266" mask="url(#mask87)"/>
<use xlink:href="#surface269" mask="url(#mask88)"/>
<use xlink:href="#surface272" mask="url(#mask89)"/>
<use xlink:href="#surface275" mask="url(#mask90)"/>
<use xlink:href="#surface278" mask="url(#mask91)"/>
<use xlink:href="#surface281" mask="url(#mask92)"/>
<use xlink:href="#surface284" mask="url(#mask93)"/>
<use xlink:href="#surface287" mask="url(#mask94)"/>
<use xlink:href="#surface290" mask="url(#mask95)"/>
<use xlink:href="#surface293" mask="url(#mask96)"/>
<use xlink:href="#surface296" mask="url(#mask97)"/>
<use xlink:href="#surface299" mask="url(#mask98)"/>
<use xlink:href="#surface302" mask="url(#mask99)"/>
<use xlink:href="#surface305" mask="url(#mask100)"/>
<use xlink:href="#surface308" mask="url(#mask101)"/>
<use xlink:href="#surface311" mask="url(#mask102)"/>
<use xlink:href="#surface314" mask="url(#mask103)"/>
<use xlink:href="#surface317" mask="url(#mask104)"/>
<use xlink:href="#surface320" mask="url(#mask105)"/>
<use xlink:href="#surface323" mask="url(#mask106)"/>
<use xlink:href="#surface326" mask="url(#mask107)"/>
<use xlink:href="#surface329" mask="url(#mask108)"/>
<use xlink:href="#surface332" mask="url(#mask109)"/>
<use xlink:href="#surface335" mask="url(#mask110)"/>
<use xlink:href="#surface338" mask="url(#mask111)"/>
<use xlink:href="#surface341" mask="url(#mask112)"/>
</g>
</svg>
